<svg xmlns="http://www.w3.org/2000/svg" width="1624" height="1402"><path fill="#F09D9E" d="M768 0h19l19 2 27 5 8 3v2l6 1 9 4 7 1 16-3 16-3 17-2 17-1h40l22 2 23 4 21 5 25 10v2l8 2 4 3 4 2 8 2 10 1 24 1 16 3 25 6 24 9 14 5v3l5 2 16 8 5 5 13 10 11 9 8 7 14 4v2l9 2 8 4 5 4 12 7 14 10 7 5 7 8 8 8 7 8 4 6 4 2 3 3 16 10 4 3 7 4 3 5 8 5 4 6 10 10 11 14 5 7 2 6 8 13 8 16 6 9 16 15 6 7 3 1 10 13 1 5 10 15 9 17 8 20 7 16 14 20 8 15 8 19 2 12 10 18v2h2l5 11 8 23 1 7-1 1 5 25 2 16 1 19v19l-3 26-1 7h2v13l7 21 4 25v42l-3 26-4 21-3 10-3 16-4 6-4 23-7 24-10 25-9 17v5l-8 7-8 11-8 9-1 4-5 3-6 5-7 8-7 6-3 4-7 3h-3l-2 29-1 11v8l-4 1-1 9-6 18-11 27-11 21-5 8v5l-9 12-4 4-2 4-5 5-4 5-4 5-2 2-2 5-5 3-4 6-8 7-5 6-14 11-5 4-7 2-8 6-4 5-5 3-6 1-5 3-1 3-3 2-7 1-26 12-8 4-2 3-9 1-36 12-26 7-8 2 2 2-5 2-10 1-5-2-23 3-25 2 3 13 1 14-2 15-4 12-4 7-5 5-5 5-15 10-18 8-24 7-21 4-10 1h-28l-18-2-24-7-15-6-7-3-8-5-4-1-3-6-9-9-21-31-11-16-9-17-8-10-14-9-18-10-10-7-9-6-2-4-15-15-10-13-6-4-22-6-16-7-19-10-15-9h-6l-14 8-14 7 1 2-11 5-2-1-2 2-4 3-6 3-10 2-28 12-33 12-10 3 1 2-10 4-9 1-2-1-18 5-3 2-12 3h-9l-25 3-20 1h-45l-1-1-29-4-27-6-25-7-28-10-24-11-25-13-25-15-22-15-18-14-11-9-7-6-5-1-4-4-3-5-4-3v-3l-5-2-15-15-7-8-9-10v-2l-4-1-6-8-5-8-5-7-5-3-14-14-9-11-4-6-13-11-7-7-11-14-8-11-9-16-7-16-6-18-4-21 1-51 6-21v-7l-3-5-7-19-3-14-3-6-4-21-2-21v-27l3-26 5-24 4-17 8-21 7-13 4-10 2-11 3-34 5-23 4-17 8-16 9-17 5-9 2-1 3-7 8-11 3-1 6-9 6-8 4-9 2-5h2l1-8 6-17 6-14h2l2-8 14-23 15-22 6-7 8-11 11-15h3l2-5 9-12 7-7 3-3 3-5 8-7 2-3h2l2-4 13-12 6-5 5-5 12-10 24-16 15-5 9-6 4-1 8-7 4-5 3-5 4-3h3l1-4 16-13 7-5h3l1-4 11-7 19-12 7-2v-2l25-14 22-12 22-11 5-3 11-3 27-9 20-5 12-3 16-4 18-10 16-7 20-7 20-3 11-3h56l17-8 18-6 30-5Zm811 640Zm-193 532Zm-184 85Z"/><path fill="#120707" d="M768 0h19l19 2 27 5 8 3v2l6 1 9 4 7 1 16-3 16-3 17-2 17-1h40l22 2 23 4 21 5 25 10v2l8 2 4 3 4 2 8 2 10 1 24 1 16 3 25 6 24 9 14 5v3l5 2 16 8 5 5 13 10 11 9 8 7 14 4v2l9 2 8 4 5 4 12 7 14 10 7 5 7 8 8 8 7 8 4 6 4 2 3 3 16 10 4 3 7 4 3 5 8 5 4 6 10 10 11 14 5 7 2 6 8 13 8 16 6 9 16 15 6 7 3 1 10 13 1 5 10 15 9 17 8 20 7 16 14 20 8 15 8 19 2 12 10 18v2h2l5 11 8 23 1 7-1 1 5 25 2 16 1 19v19l-3 26-1 7h2v13l7 21 4 25v42l-3 26-4 21-3 10-3 16-4 6-4 23-7 24-10 25-9 17v5l-8 7-8 11-8 9-1 4-5 3-6 5-7 8-7 6-3 4-7 3h-3l-2 29-1 11v8l-4 1-1 9-6 18-11 27-11 21-5 8v5l-9 12-4 4-2 4-5 5-4 5-4 5-2 2-2 5-5 3-4 6-8 7-5 6-14 11-5 4-7 2-8 6-4 5-5 3-6 1-5 3-1 3-3 2-7 1-26 12-8 4-2 3-9 1-36 12-26 7-8 2 2 2-5 2-10 1-5-2-23 3-25 2 3 13 1 14-2 15-4 12-4 7-5 5-5 5-15 10-18 8-24 7-21 4-10 1h-28l-18-2-24-7-15-6-7-3-8-5-4-1-3-6-9-9-21-31-11-16-9-17-8-10-14-9-18-10-10-7-9-6-2-4-15-15-10-13-6-4-22-6-16-7-19-10-15-9h-6l-14 8-14 7 1 2-11 5-2-1-2 2-4 3-6 3-10 2-28 12-33 12-10 3 1 2-10 4-9 1-2-1-18 5-3 2-12 3h-9l-25 3-20 1h-45l-1-1-29-4-27-6-25-7-28-10-24-11-25-13-25-15-22-15-18-14-11-9-7-6-5-1-4-4-3-5-4-3v-3l-5-2-15-15-7-8-9-10v-2l-4-1-6-8-5-8-5-7-5-3-14-14-9-11-4-6-13-11-7-7-11-14-8-11-9-16-7-16-6-18-4-21 1-51 6-21v-7l-3-5-7-19-3-14-3-6-4-21-2-21v-27l3-26 5-24 4-17 8-21 7-13 4-10 2-11 3-34 5-23 4-17 8-16 9-17 5-9 2-1 3-7 8-11 3-1 6-9 6-8 4-9 2-5h2l1-8 6-17 6-14h2l2-8 14-23 15-22 6-7 8-11 11-15h3l2-5 9-12 7-7 3-3 3-5 8-7 2-3h2l2-4 13-12 6-5 5-5 12-10 24-16 15-5 9-6 4-1 8-7 4-5 3-5 4-3h3l1-4 16-13 7-5h3l1-4 11-7 19-12 7-2v-2l25-14 22-12 22-11 5-3 11-3 27-9 20-5 12-3 16-4 18-10 16-7 20-7 20-3 11-3h56l17-8 18-6 30-5Zm0 54-28 6-20 8-19 10-12 5-16 8-8 5-6 4-3 1 5-6v-2l4-1 13-12 1-3h-45l-18 4-16 6-19 10-11 8-11 9-19 19-7 11-3 4-3 1 4-9 5-8 11-18 3-5h-12l-25 7-24 9-25 12-19 11-25 13-20 12-19 14-10 8-11 9-17 16-4 6 9 3 17 5 6 1h11l10-3 6-4 7-8 5-7v-2h2l3-4 3-15 3-1 1-3-1 10-6 16-7 12-7 7-9 5-11 3h-10l-28-6h-12l-15 3-17 8-14 10-11 9-10 9-10 9-15 16-9 11-11 13-7 11v2l20 2 10 3 6 4h2l4-8 5-5 9-10 7-7 16-12 14-8 11-5 6-3 6-3h4l-8 5-8 4-20 13-10 8-10 9-10 11-7 10-7 14-2 7v18l5 16 9 15 1 3-10-9-6-10-4-13v-28l1-5-8-7-6-3-5-1h-9l-10 3-9 6-9 9-11 15-9 16-9 19-10 27-6 25-2 14v31l1 16-2-1-4-11-2-15-3-23-7 6-12 17-10 18-8 21-5 21-1 10v23l3-3 9-17 9-12 7-7 13-9 12-6 9-3h15l6 4 8 9 8 15v8l-36 3-9 3-13 5-16 8-11 9-13 11-1 2v8l4 23 2 3v10l-5-12-8-23h-2l-7 10-6 13-4 11-6 29-1 8v56l4 20 10 30 8 18v11l-6 16-3 14-1 7v21l2 15 5 18 10 21 10 14 11 12 9 8 15 10 6 5 9 14 10 14 14 17 11 12 7 8 19 19 8 7 15 13 17 13 19 14 19 12 18 10 16 8 20 9 23 8 12 2 10 4 17 2 9 3 24 3h40l14-1 4-2 16-2 4-1 20-2 11-3 1-2 8-1 3-2 15-4 16-4 7-3 14-4 14-7v-2l4-2 8-2v-2l6-2 6-2v-2l6-2 11-4 8-5 6-4 7-3 4-3 9-3 14-8v-7l-8-16-4-15-2-10-1-1v-21l2 1 2 13 2 12 6 13 2 8 7 10 7 6 6-1 10-5v2l-5 2-5 6 7 9 13 10 15 9 23 10 8 4 19 5 23 4 9 1h70l1-2 24-3 9-3 19-5 4-2 10-2 21-9 10-6 5-4 9-3v-2l6-2 11-8v-2l5-2 9-7 11-9 7-7 4-2v-2l6-2 11-8 5-2 5-5 10-4 16-8 14-6 2-2 36-12 9-3 9-2 9-4 17-5 9-2 8-3 8-4 14-3 14-6 14-9 5-5 9-6 14-14 8-10-1 7-4 7v2h-2l-4 7-1 3-3 1-1 3h12l9-1 1-1 17-1 9-2 7-2 13-1 19-5 16-6 7-4 9-2 19-10 4-5 8-7 1-2v-11l-7-14-4-4h-5l-7 3-9 1v-2l11-3 13-8 12-11 10-13 4-4 4-11 2-1 6-20 1-7v-33l-5-21 3 3 4 8 3 20v27l-2 12-4 10-3 10-6 11-2 4-4 2-12 14-7 3 1 6 8 17 1 5 5-2 8-8 3-4 3-7 2-4 3-1 3-6 3-9 5-11 5-14 2-7 2-3 4-20 2-12 4-11 1-9h2l4-15v-13l-4-15-7-14-5-5-9-9-5-2h-13l-3 2v2h-2l-7 8-4 6-8 20-2 2-2 13-3 17-2 4-1 7v19l1 30-2-1-3-13-1-18v-30l2-8 1-2 1-11 5-15 5-11 1-5h2l9-13 9-7 7-3h11l11 6 5 5 5 6 6 11 3 3 1-31-3-9-2-14-3-10-4-1-10 19-5 6-2 1 2-8v-3l3-1 6-19 6-21 2-10v-63l-4-17-1-9-2-4-2-10-7-19-4-6-2 1-3 11-2 9-1 2-1-31-2-14-4-19-12-22-3-6-10-11-5-6-10-7-10-4-12-3-1-2 16 1 9 2 6 3-2-6-5-11-3-9-8-14-3-5-4-4-6-9-7-6-4-6-5-6h-3l-1 18-3 17-2 7-2 1v-25l-2-18-2-9-2-8-6-15-5-9-4-5-3-7-6-6-1-3-5-5-5-5-7-8-3-3v-2l-11-7-9-6h-1v20l-1-2h-2l-3-9-3-5-1-4h-2l-2-5-6-10h-2l-2-4-6-8-8-10-11-9-11-8-14-8-17-7-10-3-10-2-14-3h-26l-14 2-23 9-5 1v-2l6-2 8-5v-2l5-1 7-3 13-3 8-1 27-1 2-2-8-5-13-11-9-5-3-3-17-7-3-3-10-3-32-8-1-1h-32l5 10 10 18-1 1-11-13-10-10-11-8-23-12-18-8-20-6-18-4-15-2-16-1h-27l-23 2-23 4-26 6-9 4 1 2 22 5 17 6 11 4 9 5-8-1-12-3v-2l-23-5-20-2h-40l-23 3-23 5-30 10-27 12-16 10-13 11 1 2 24 7 26 11h7l22-8 11-2h24l15 4h-37l-18 4-16 6h-10l-18-7-23-6-20-3h-20l-17 3-17 5-18 8-17 9-17 12-13 11-15 14-9 11-12 16-4 7v3l9-3 21-9 21-7 24-6v-2h12l-21 7-37 15-33 16-19 11-15 10-16 12-14 12-15 15-11 14-10 15-9 17-7 18-5 21-1 8v17l4-1 14-10 18-10 15-7 19-6 14-3h3l-21 8-21 10-20 12-16 12-15 14-10 11-10 14-11 21-6 18-3 16v38l2 14 6 24 14 42 1 4-6-10-9-17-3 1-7 15-9 24-6 28-2 18v30l3 26 6 23 6 16 12 23 9 12 5 6-8-7-7-7-5-6-4-1-3 4-6 20-3 17-1 10v25l2 13-4-16-2-16v-19l1-16 3-13v-4l3-1 3-9 1-1-1-9-5-8-3-12-5-12-2-13-1-2-1-20v-53l2-1 5-27 5-16 4-9 2-1 8-18v-13l-5-18-3-19-1-2v-30l3-16 1-12 4-7 5-13 10-19 8-11 4-7 7-8 3-1 2-35 3-12 1-8 3-7 6-18 4-5 7-14 4-5 3-7 5-6 6-8 7-8 7-6 7-8 9-7v-2l5-1 11-9 2-2 7-3 7-6 9-3 7-7 4-9h2l2-7 3-5 4-4 7-11v-2h2l3-5 4-4v-2l4-2 8-7 10-9 3-2v-2h-3l11-9 4-2 9-2 12-7 3-3 14-5 10-6 5-2 13-2 3-2v-2h6l2-1 11-1h18l8-6 14-10 13-8v-2l10-3 16-8v-2l5-1 24-9 13-1 23-5 10-2 19-1 9-4 9-4v-4l-28-8-10-4-10-2Zm811 586Zm-193 532Zm-184 85Z"/><path fill="#E3626E" d="M1091 99h26l8 3 16 4 14 3 7 3 3 3 17 7 4 4 8 5 11 9 8 5-2 2-27 1-16 3-10 3-4 2h-3l-1 3-11 6h-2v2l13-4 15-6 14-2h26l14 3 16 4 17 6 15 8 14 10 13 11 6 8 8 10v2h2l8 13v2h2l3 8 4 8v2h2l1 2v-20l6 3 10 7 5 3 1 4 7 6 7 8 5 5 3 5 6 7 3 7 4 5 7 15 3 8 2 13 2 8 1 12v25l2-1 3-11 2-13 1-18 4 1 7 9 6 7 5 5 5 8 3 3 10 17 5 13 5 11-1 2-8-4-6-1-16-1 1 2 18 5 10 6 8 7 7 8 6 8 8 16 5 9 5 23 1 10 1 31 2-4 3-15 2-4 4 4 7 18 2 5 2 10 1 2 3 19 2 7v63l-4 18-9 29-2 4h-2l-1 9-1 2 5-5 4-5 8-16 4 1 4 15 2 14 2 4-1 31-4-5-5-9-7-8-5-4-9-5h-11l-10 5-7 6-8 12h-2l-1 5-5 11-5 15-1 11-2 4-1 6v30l1 18 3 13 2 1-1-30v-19l1-7 3-8 4-26 3-4 7-18 4-6 7-8h2l1-3 2-1h13l6 3 8 8 5 5 7 14 4 15v13l-4 15h-2l-1 9-5 14-2 15-4 16-2 3-4 14-4 9-5 11-2 8-2 3-3 1-4 7-2 5-9 10-4 3h-2l-3-9-7-16v-3l7-3 10-11 4-5h2l2-4 8-16 4-14 2-6 1-7v-27l-3-20-5-10-2-1 5 21v33l-3 14-4 13-2 1-4 11-9 10-6 8-7 7-10 7-9 5-9 2v2l9-1 7-3h5l6 7 5 11v11l-7 8-5 5-14 8-9 4-8 2-12 6-17 5-11 3-19 2-4 2-6 1-17 1-1 1-9 1h-12l2-4h2l2-4 3-6h2l2-5 3-6v-5l-12 14-12 12-7 4-5 5-11 7-12 6-8 3-11 2-8 4-8 3-9 2-23 7-5 3-12 2-7 3-33 11-4 3-12 5-16 8-12 5-3 4-6 3-10 7-6 2v2l-6 4-8 8-10 8-10 7h-2l-1 3-11 8-5 1v2l-10 4-10 7-17 8-10 4-11 2-9 3-18 5-2 1-24 3-1 2h-70l-21-3-23-5-14-5-10-5-18-8-15-10-10-8-6-8 6-7 4-1v-2l-12 6-5-1-8-7-6-10-2-8-5-11-2-16 8-6 4-3 5-9 11-16 8-14 4-4 8-20 6-32 1-10v-36l-3-16-5-15-10-21-4-6-3-7-5-5-4-6 1-2 8 6 4 4 4 7 9 12 9 17h5l8-4 10-3 7 1 1-3 7-2 12-5 23-12 9-5h2l1-3 3-2 7-2 15-11 7-8 8-7 4-4 7-8 7-8 11-16 4-8h2l2-5 4-8 2-8 4-11h2l1-9 3-13 1-11v-22l-2-16-6-17-3-4-2-7h-2l-8-12-12-14-8-8-21-14-15-8-12-5-2-3 13 1 10 4 9 3 23 14 10 9 7 8 7 8 12 19 8 20 3 13 2 10v28l-5 20-1 2 7-4 10-6 8-5 6-12h2l1-11 1-1 2-27 3 2 2 10v18l-4 14-1 3h4v-2l11-4 13-1 2-2 8-1 32-1 7-3 5-5 8-6 9-11 5-10 5-8 3-7 1-7h2l3-12 2-3v14l-4 17-3 7-6 10-5 9-4 5h-2l-2 4-5 5-4 1v3l22 3h9l11-6 5-2 2-4 8-6 5-2 8-8 8-7 8-5 13-14 3-5 9-10 12-18 9-17 2-10 2-2 4-17 2-11 2-1v25l-4 10-3 14 21-4 2-2 12-3 4-1 2-4 3-3h3l1-4 10-9 1-2h2l2-4 12-14 3-5 9-11 5-5 13-16 5-8 9-10 4-7 6-8 7-9 3-5 3-3 7-11h3l-2 6-9 17-4 4-13 20-10 15-7 11-6 7h-2l-1 4-5 5-5 6-1 3-5 5-6 8-6 5-1 2h-2l-2 4-15 15-2 4 13 3 17 5 14 6 9 8 8 10 3 1 8 13 6 13 2 7v11l-3-4-7-16-7-11-11-14-7-6-9-5-10-5-13-4-11-2h-18l-7 2-18 2-11 4-3 1-2 6-10 14-10 13-5 6-5 5-3 4-5 3-11 12-5 3-16 11-1 3-5 3-7 3-4 4 5 2 11 8 5 5 6 8 3 5 3 3 4 12 4 11v9l-3-3-7-16-2-4-7-4-8-6-18-8-11-3-23-3h-21l-26 4-27 7-20 10-13 9-11 9-12 12-8 11-11 16-12 16-7 8-5 3-11 11-8 7-7 7-3 5-16 16-9 13-3 7-9 20-6 20-3 16-2 26-2 27-1 3 8-4h9l4 2-8 6-6 3-6 6-2 11-4 12-9 17v6l11 3 22 4 13 1h20l26-2 5-2 21-3h5l-3-10-4-24-1-17-14 6-18 5-1 1h-14l4-3 14-5 8-2 16-9 10-9 8-7 10-11 9-6 5-9-2-1 5-10 7-18 3-7 2-8-14-1-1-3-6-1-11-4-4-3v-2l-5-2-6-4-12-13-4-5-2-4 1-4 6 5 7 8 10 8v2l5 2 14 7 14 4h9l28-3 11-4 10-5h2l1-3 9-6 7-3 11-10 9-11 5-6 5-5 4-6-1-7-8-14-5-10v-3h-2l-3-8v-6h3l9 15 6 12 7 9v2l4 2 10 5 12 3h22l14-3h3v-2l16-6 9-2 17-10 11-9 14-14 9-11 10-14 9-16 8-18 3-12 7-18h2v10l-4 13-3 13-2 8 6 1h8l17-4 16-7 12-8 10-8 13-13 12-16 8-13h2l2-6 8-16 10-25 5-15 2-11 1-3 3-14 3-9 6-33 3-28v-38l-3-23-4-17-8-21-9-17-6-7-3-6-7-4-18-5-7-1h-17l-18 4-4 3-11 6-7 5-5 3-7 8-7 15-5 13-3 2v-8l5-27 4-35 2-22 3-10 6-8h2v12l2 3 2 6 3 4v2l4 2 9 4 4 1 54 1 15 3 16 7 13 9 7 6-5-22-3-8-3-7-4-12-8-15-9-10-3-2h-4v5l2 2 4 13 1 2v9l-4-5-8-17-10-16-5-6-4-7-12-11-11-9-2-1v-2l-6-2-14-6-16-5h-24l-16 4-19 9-5 2v2l-6 5-3 1-8 10-5 5-9 14-10 24-5 17-1 10v20l2 13 5 10 6 8 4 7 4 5 5 5 12 21 8 19 5 18 1 14-2 20-2 4-1-3-1-18-4-17-3-5-5-15-8-16-6-11-11-16-13-16-3-6-7-9-5-4-6-10-1-3v-16l3 3 7 14 1 3h2l2 3 1-30 5-22 2-4h2l1-12v-15l-2-15-8-27-6-16-2-7h-2l-6-11-3-7-8-13-5-6-5-5-8-10-3-5-13-11-15-13v-2l9 1 12 2h12l13-4 14-6 12-6h4l-3-5-21-13-16-7-16-3Z"/><path fill="#F6F9F9" d="M768 0h19l19 2 27 5 8 3v2l6 1 9 4 7 1 16-3 16-3 17-2 17-1h40l22 2 23 4 21 5 25 10v2l8 2 4 3 4 2 8 2 10 1 24 1 16 3 25 6 24 9 14 5v3l5 2 16 8 5 5 13 10 11 9 8 7 14 4v2l9 2 8 4 5 4 12 7 14 10 7 5 7 8 8 8 7 8 4 6 4 2 3 3 16 10 4 3 7 4 3 5 8 5 4 6 10 10 11 14 5 7 2 6 8 13 8 16 6 9 16 15 6 7 3 1 10 13 1 5 10 15 9 17 8 20 7 16 14 20 8 15 8 19 2 12 10 18v2h2l5 11 8 23 1 7-1 1 5 25 2 16 1 19v19l-3 26-1 7h2v13l7 21 4 25v42l-3 26-4 21-3 10-3 16-4 6-4 23-7 24-10 25-9 17v5l-8 7-8 11-8 9-1 4-5 3-6 5-7 8-7 6-3 4-7 3h-3l-2 29-1 11v8l-4 1-1 9-6 18-11 27-11 21-5 8v5l-9 12-4 4-2 4-5 5-4 5-4 5-2 2-2 5-5 3-4 6-8 7-5 6-14 11-5 4-7 2-8 6-4 5-5 3-6 1-5 3-1 3-3 2-7 1-26 12-8 4-2 3-9 1-36 12-26 7-8 2 2 2-5 2-10 1-5-2-23 3-25 2 3 13 1 14-2 15-4 12-4 7-5 5-5 5-15 10-18 8-24 7-21 4-10 1h-28l-18-2-24-7-15-6-7-3-8-5-4-1-3-6-9-9-21-31-11-16-9-17-8-10-14-9-18-10-10-7-9-6-2-4-15-15-10-13-6-4-22-6-16-7-19-10-15-9h-6l-14 8-14 7 1 2-11 5-2-1-2 2-4 3-6 3-10 2-28 12-33 12-10 3 1 2-10 4-9 1-2-1-18 5-3 2-12 3h-9l-25 3-20 1h-45l-1-1-29-4-27-6-25-7-28-10-24-11-25-13-25-15-22-15-18-14-11-9-7-6-5-1-4-4-3-5-4-3v-3l-5-2-15-15-7-8-9-10v-2l-4-1-6-8-5-8-5-7-5-3-14-14-9-11-4-6-13-11-7-7-11-14-8-11-9-16-7-16-6-18-4-21 1-51 6-21v-7l-3-5-7-19-3-14-3-6-4-21-2-21v-27l3-26 5-24 4-17 8-21 7-13 4-10 2-11 3-34 5-23 4-17 8-16 9-17 5-9 2-1 3-7 8-11 3-1 6-9 6-8 4-9 2-5h2l1-8 6-17 6-14h2l2-8 14-23 15-22 6-7 8-11 11-15h3l2-5 9-12 7-7 3-3 3-5 8-7 2-3h2l2-4 13-12 6-5 5-5 12-10 24-16 15-5 9-6 4-1 8-7 4-5 3-5 4-3h3l1-4 16-13 7-5h3l1-4 11-7 19-12 7-2v-2l25-14 22-12 22-11 5-3 11-3 27-9 20-5 12-3 16-4 18-10 16-7 20-7 20-3 11-3h56l17-8 18-6 30-5Zm-12 39-17 3-15 5-16 8-6 4-4 1h-11l-6-1h-44l-15 3-15 4-16 6-18 10-9 7v2h-18l-20 3-21 6-22 9-25 12-25 14-17 9-23 14-18 13-16 12-11 10-8 7-7 7-9 11-4 3-10 2-10 3-14 8-14 11-12 11-12 11-25 25-9 11-10 12-13 19-9 11-12 16-15 25-11 22-8 22-4 16-7 8-10 11-13 18-10 18-8 17-6 18-4 18-1 8-1 31-3 12-12 21-8 21-4 14-5 24-1 8v42l4 29 8 26 9 20 2 4-1 9-5 15-3 16v33l2 13 5 18 8 18 7 12 9 12 11 12 11 10 16 11 6 7 12 18 10 13 11 13 12 13 16 17 7 7 8 7 10 9 14 11 17 13 24 16 17 10 23 12 25 11 33 11 26 6 22 4 11 1h58l31-4 35-7 36-11 29-11 29-13 22-11 22-12 29-16 5 1 15 12 18 11 19 10 20 7 12 3 9 1 5 9 10 13 9 10 8 7 16 12 13 8 12 5 10 5 10 15 29 44 10 15 8 11 8 7 16 8 15 5 18 3h20l29-5 20-6 16-7 9-8 2-4v-15l-14-41-7-21 16 3 12 1h51l26-3 35-9 32-11 29-12 26-13 18-11 14-10 16-13 16-15 9-10 10-13 10-15 9-16 8-16 6-14 9-26 4-21 2-19v-27l5-1 14-7 14-11 14-14 12-16 11-18 11-23 7-21 4-17 3-16 8-26 5-24 2-13v-40l-3-19-6-22-4-12v-13l2-11 1-12v-48l-4-21-5-21-6-18-8-16-7-11-6-24-8-18-7-11-10-12-5-12-10-25-10-19-10-14-8-10-9-10-5-5-14-13-9-21-8-15-12-16-9-10-13-13-17-13-17-10-5-4-11-14-14-14-14-11-15-9-15-7-18-7-10-9-7-7-19-14-15-9-23-11-21-7-20-4-10-1h-34l-9-3-13-8-19-8-21-7-26-6-17-2h-58l-29 4-20 5-2 1h-10l-22-10-23-7-11-2Zm823 601Zm-193 532Zm-184 85Z"/><path fill="#2B0C0E" d="m543 889 4 2 2 2 2 5 5 4 7 8 10 8 16 8 17 7 20 6 2 4h-19l-16-3-4-2-1 18-4 23-4 14-4 11-6 15-9 17-8 11-10 11-4 6-6 7-5 3-11 9-5 5-5 2-6 4h-2v2l-21 10-17 6-9 2-7 2-21 4h-45l-20-3-20-6-21-10-18-12-14-11-14-13-5-4-3-6-13-13-7-11-8-11-7-8-15-23-8-13v-3l-6-1-12-7-10-12-5-10v-17l4-1 3 15 4 6 5 5 7 6 15 8 18 6 17 4 19 2h70l26-2 11-2 15-1 21-5 22-5 19-6 17-5 20-7 10-3 8-4 15-6 16-8 5-3 8-3 5-3-2-4-6-9-2-4Z"/><path fill="#FAFAFA" d="M503 618h35l16 4 15 6 15 9 13 11 8 8 11 15 10 21 5 16 3 19v17l-5 25-8 21-9 16-11 13-8 7-25 10-13 7-10 8-11 4h-25l-14-2-18-6-16-8-13-9-10-9-9-12-8-13-7-15-5-16-3-17v-25l3-18 5-15 8-16 7-11 11-12 12-11 14-9 15-7 14-4Z"/><path fill="#E05665" d="m804 59 4 1 28 8v4l-12 6-6 2-19 1-24 5-9 2-13 1-16 6-10 4h-3l-1 3-15 7-7 2-3 1v2l-19 12-10 8-6 4h-18l-11 1-2 1h-6l-1 3-6 2-9 1-10 5-12 6-9 3-3 3-12 7-9 2-8 6-4 4h2l-1 3-8 7-10 9-4 3h-2l-2 4-4 4-1 3h-2l-2 5-7 11-3 3-3 5-1 5h-2l-5 10-8 7-7 2-7 6-8 4-9 8-4 3h-4l-1 3-11 9-9 10-7 6-8 10-1 3-5 5-4 9-6 9-4 9-3 3-8 24-1 1-2 13-2 7-2 35-5 3-8 10-4 7-7 11-8 15-6 15-3 5-2 17-2 11v30l2 7 3 17 4 15v13l-8 18-2 1-5 13-5 16-4 23-2 1v53l1 20 2 10 4 13 4 11 2 6 5 10v6l-2 2-3 9h-2l-1 8-2 9-1 16v19l3 20 2 9h-3l-5-8-5-11-6-18-6-29-5-23-9-28-6-26-4-27v-46l4-27 6-25 8-23 4-9 1-4v-8l-6-27-2-16v-47l3-21 4-17 6-16 8-15 3-4h-18l-22 6-13 6-12 7-7 6-11 14-6 12-3 11v36l1 11v20l-3-3-13-24-5-10-5-15-2-13v-12l3-14 5-12 11-13 8-9 14-8 10-4 15-3 8-1h27l16 2 2 1 1-12 5-22 7-21 10-18 2-5 9-13 7-10 7-9 9-10 12-11 11-9 8-5 18-14 11-8 1-2 5-3 16-13 5-3 9-9 8-10 8-9 8-7 5-6 8-7 13-11 12-9 15-10 26-14 29-13 8-4 11-4 16-4 29-9 9-5h2l1-3 8-4 17-8 20-6 45-10 4-2 14-3 24-8 4-1Z"/><path fill="#F2AAAB" d="M768 54h20l12 3 4 2v2l-15 6-20 6-9 2-16 4-39 9-19 7-10 5-8 4-4 4-11 5-36 11-12 3-12 5-12 6-24 11-23 13-12 8-14 11-14 12-8 7-7 8-8 7-11 14-11 11-5 3-16 13h-3l-2 4-19 14-13 10-5 3-14 12-12 11-10 12-7 11-9 12-3 6-8 16-4 8-7 23-5 27-18-2-20-1-2-4-7-10-7-14-3-11v-18l4-12 8-14 9-10 7-8 11-10 16-11 16-10 10-5 1-1-7 1-6 4-12 5-13 7-16 12-10 9-7 7-5 7-4 4-2 5-5-2-8-4-11-2-14-1 2-6 11-14 12-14 9-10 9-10 16-15 14-11 14-10 17-8 15-3h12l28 6h10l11-3 9-5 7-7 8-14 6-18v-6l-2 4h-2l-3 15-3 4h-2l-2 5-9 10-5 5-7 3-5 1h-11l-16-4-15-4v-3l7-8 16-15 10-8 21-16 21-13 25-13 21-12 19-10 27-11 26-8 5-1h12l-7 11-9 16-5 7-2 6 3-1 9-13 7-8 16-16 13-10 15-9 17-8 16-5 11-2h45l-3 5-12 11h-3l-2 4-3 4 8-4 5-4 16-8 13-6 16-8 15-7 14-5Z"/><path fill="#0A0606" d="M152 641h23l17 5 16 10 6 4v2l4 2 11 14 9 16 7 14 3 12 2 17 1 1v38l-2 2-1 9-2 5-2 9-8 16-6 11-11 14-6 4-8 7-13 6-17 4-20 1 4 6 6 11v10h-3l-8-13-9-10-1-4-4-2-14-8-11-3-8-1v-2l-27 1 3-4 7-3 19-1 2-1-5-5-3-3-3-7-7-11-9-19-5-15-3-9-1-10v-26l2-13 5-19 5-11 3-3 8-14 5-5 9-10 10-8 5-2 4-3h5v-2Z"/><path fill="#C93D48" d="M947 1143h9l2 7 8 10 12 13 11 9 2 14 4 14 4 9 4 11v7l4 2 4 6 3 7 10 14 2 4 4 5 1 4 4 2-1-7-5-9-2-1-2-7-6-9-5-10-10-19-7-17v-9l1-4 6 2 20 9 9 4 7 3 20 3 7 3 4 11 6 21 14 42v7l-6 4-20 8-13 3-13 1h-32l-17-2-7-4-11-3-5-4-13-21-14-22-6-10-7-9-11-17v-3l14-1 13-2 1-1-17-1-22-5-17-7-15-9-17-13-16-16-7-9v-3h12l2 1h75l13-2 2-2Z"/><path fill="#DD5362" d="m1427 676 3 2 4 18 1 17v29l-2 18-4 20-4 11-4 14-8 15-10 16-9 12-4 5-5 5-8 7-16 12-3 2 18 3 11 3 14 6 7 5 1 4-9-3-2-1v-2l-9-2-12-2h-37l-9 3-20 2h-41v2l-8 5-8 6-8 7-4 5-10 6-5 4h-2l-1 3-13 7-10 4-5 3-16 6 5 5 7 9-1 5-7-6-8-6-9-1-17 3-6 3h-8v2l-19 3-15 1-7 6-5 7h-2l-2 4-5 6-8 7-9 8-4 2h-3l2-4 10-10 1-2h2l2-4 9-10 7-12-5-5-8-8-11-9-10-9-10-7v-2l5 1 10 7 10 5 8 1 24-1 20-4 23-8 24-11 26-13 22-12 15-8 18-10 29-15 25-11 21-9 22-12 14-10 11-9 16-16 12-16 10-18 6-14 7-23 3-23Z"/><path fill="#FAFAFA" d="M154 649h14l16 4 16 8 11 8 7 7 4 8-11-3-2-1h-18l-10 3-11 6-3 4 6 2 6 5 4 7v11l-3 7-7 6-4 2h-13l-6-4-3-3-1-3-2-1-2 17v20l4 16 5 13 6 9 3 3v2l4 2 8 6 10 5 5 1h16l15-4 10-5 3-1-3 9-8 12-8 9-12 9-14 7-9 2h-23l-11-4-15-8-11-9-8-8-9-13-7-15-6-17-2-13v-35l3-17 6-16 8-14 13-15 10-8 12-7Z"/><path fill="#040404" d="M535 654h23l14 4 10 5 17 17 8 14 3 7 3 14v27l-2 12-8 20-8 11-9 9-11 7-12 6-4 1h-24l-13-4-14-9-11-11-8-14-5-13-2-11v-30l3-9 8 6 6 3h14l6-3 5-5 3-6v-13l-4-6-7-6-11-4 6-7 9-6 12-5Z"/><path fill="#1F0709" d="m1348 435 2 1-2 6-9 17-4 4-13 20-10 15-7 11-6 7h-2l-1 4-5 5-5 6-1 3-5 5-6 8-6 5-1 2h-2l-2 4-15 15-2 4 13 3 17 5 14 6 9 8 8 10 3 1 8 13 6 13 2 7v11l-3-4-7-16-7-11-11-14-7-6-9-5-10-5-13-4-11-2h-18l-7 2-18 2-11 4-3 1-2 6-10 14-10 13-5 6-5 5-3 4-5 3-11 12-5 3-16 11-1 3-5 3-7 3-4 4 5 2 11 8 5 5 6 8 3 5 3 3 4 12 4 11v9l-3-3-7-16-6-12-10-11-10-8-10-4-8-4-3-1-16-2-8-2h-48l-16 2-17 5-5 1v2l-12 4-16 9-10 8-5 8-5 9h-2l-2 6-5 11-7 11-7 8-11 14-14 14-6 5-5 5-6 5-9 5-8 5-12 6-16 8-4 1v2l-13 5-12 6-5 5-6 8h-2l-1 5-3 5h-2l-2 5-2 8-2 44-4 16-2 10-8 17-5 12h-2l-2 6-10 15-11 13h-3v3h-3l2-4 7-10 7-10 6-11 2-6 9-22 6-32 1-10v-36l-3-16-5-15-10-21-4-6-3-7-5-5-4-6 1-2 8 6 4 4 4 7 9 12 9 17h5l8-4 10-3 7 1 1-3 7-2 12-5 23-12 9-5h2l1-3 3-2 7-2 15-11 7-8 8-7 4-4 7-8 7-8 11-16 4-8h2l2-5 4-8 2-8 4-11h2l1-9 3-13 1-11v-22l-2-16-6-17-3-4-2-7h-2l-8-12-12-14-8-8-21-14-15-8-12-5-2-3 13 1 10 4 9 3 23 14 10 9 7 8 7 8 12 19 8 20 3 13 2 10v28l-5 20-1 2 7-4 10-6 8-5 6-12h2l1-11 1-1 2-27 3 2 2 10v18l-4 14-1 3h4v-2l11-4 13-1 2-2 8-1 32-1 7-3 5-5 8-6 9-11 5-10 5-8 3-7 1-7h2l3-12 2-3v14l-4 17-3 7-6 10-5 9-4 5h-2l-2 4-5 5-4 1v3l22 3h9l11-6 5-2 2-4 8-6 5-2 8-8 8-7 8-5 13-14 3-5 9-10 12-18 9-17 2-10 2-2 4-17 2-11 2-1v25l-4 10-3 14 21-4 2-2 12-3 4-1 2-4 3-3h3l1-4 10-9 1-2h2l2-4 12-14 3-5 9-11 5-5 13-16 5-8 9-10 4-7 6-8 7-9 3-5 3-3 7-11Z"/><path fill="#DD5361" d="M693 1030h1l1 13 2 6 4 17 7 16 2 3v7l-18 10-6 2-6 4-7 3-9 6-6 3-9 3-4 1v2l-10 4h-2v2l-8 2-4 2v2l-17 8-16 5-8 3-10 2-17 5-1 1-8 1-1 2-11 3-20 2-10 2-10 1-4 2-14 1h-40l-24-3-14-4-12-1-14-5-11-2-14-5 2-2-6-4v-1l12 1 14 2h17l-10-8 4-1 21 3h26l20-3 20-6h6l-2 4-14 7-8 3-2 1h7l16-4 28-5 18-5 33-10 20-8 20-9 20-10 22-13 16-11 21-16 25-25Z"/><path fill="#FAFBFB" d="m558 921 6 1 13 9 1 2v7l-3 5-13 10-15 10-26 15-19 10-31 13-28 10-21 6-20 4-20 3-23 2h-63l-8-4-5-4-10-14-9-16v-2h64l28-2 36-5 22-4 34-8 29-9 22-8 20-9 25-13Z"/><path fill="#EA6673" d="M528 1017h30l-2 7-4 4-3 5-2 5-9 11-13 14-5 5-5 3-5 5-8 4-5 5-9 3v2l-18 8-7 1-9 4-8 3-8 2-12 1h-48l-1-1-21-3-1-3 6-10 3-7 5-6 5-4 1-5h3l13-10 1-2-7 4h-3l6-5h6l20-10 13-4 1-1h21l-2 5-5 5-3 5-5 9-2 3h-2l-3 11 3-1 3-6 14-14 6-7 6-4 7-6 4-5 6-4 7-3v-2l9-4 10-4Z"/><path fill="#190808" d="M848 134h2l2 5 2 30 3 19 1 3 2 16 6 25 5 8 7 6 10 8 10 9 9 10 10 15 6 10 4 13 2 1 5-15 4-10 3-8 3-3 2-6 3-5 6-11h2l-1 8-3 10-3 5-3 8-2 10-6 19-6 27-1 9v39l2 23 5 24 6 12 5 8 16 16 5 5 8 11 7 12 7 16 4 12 5 22v27h-3l-7-35-5-15-7-18-9-14-4-7-14-15-11-11-15-10-16-8-17-5-39-1-8 3-15 4-11 4-6 2-1 3-6 3-10 8-7 10-5 12-4 10-2 8-2 7-2 7h-1v-48l-3-20-5-16-10-21-4-6-2-5-11-13-4-6 6 2 8 8 9 11 8 11 8 16 2 7h2l4 11 2 8v8h3l1-4 7-8 11-8 13-9 9-2 17-5 15-2h29l16 4 16 6 9 4-3-10-1-1-5-32-1-16v-32l1-9v-18l-2-3-1-11h-2l-5-11-3-7-9-13-5-5v-2l-4-2-6-5-4-6-14-9v-2l-5-2-22-11-17-6-16-4-17-2h-33l-23 4-17 5-18 8-11 7-5 5-15 14-3 1 1-4 8-11 8-7 5-4-18-2-10-4-8-6-7-8-5-11v-21l1-2h3v14h2l5 15 4 5 11 7 2 1h33l5-3h5v-2l10-4 8-2 15-4 11-1h38l1 1 17 2 12 2 13 4 7 3v2l3-1 12 6-4-18v-8h-2l-3-31Z"/><path fill="#F09595" d="M1179 155h26l14 3 6 3 10 6 8 4 11 8 10 9 5 5 7 7 9 13 8 16 1 7-7-1-23-5-7-1h-34l-23 3h-17l-11-3-9-5-11-11-15-20-8-9-1-5 4-7 6-5 20-7 7-3Z"/><path fill="#DE5462" d="M854 546h20l21 6 16 8 11 7 7 7 8 7 8 10 15 24 10 9 12 6 15 4 10 1h14l18-3 15-5 17-9 13-10 9-8h3l-3 13-2 4h-2v7l-7 14-4 6-3 6-8 10-4 4-5 3-5 5-7 3-32 1-8 1-2 2-13 1-8 3h-3v2h-4l2-9 2-8v-18l-2-10-1-1-2 26-2 6-1 6h-2l-3 9-4 5-16 9-5 4h-3l3-14 2-8v-28l-2-10-5-19-7-16-12-18-9-10-9-10-17-11-14-8-14-4Z"/><path fill="#140B0B" d="M511 607h18l17 2 9 4 14 5 16 8 9 6 5 5 11 11 10 13 9 16 7 14 3 5v7l2 9 2 2v33l-1 1-1 15-4 12-3 10h-2l-2 9-9 14-6 10-3 4h27l16 3 18 6 2 4-11-1-12-2h-32l-23 4-21 7-17 9-17 11-8 8-7 8-3 5-5 5-5 10h-2v-8l6-10 7-14 1-1-21-1-15-3-15-5-16-8-9-6-11-8-11-11-7-9-9-14-7-15-6-18-3-17v-26l3-21 4-14 5-10 5-10h2l2-5 9-13h2l2-4 7-9 12-10 7-4 16-8 19-6 4-2Zm-8 11-19 5-12 5-13 7-10 8-10 9-7 7-7 10-9 16-6 16-3 14-1 8v25l4 21 6 17 9 17 10 14 9 10 15 11 16 8 16 6 8 2 10 1h25l11-4 13-10 19-9 16-6 10-9 11-14 8-15 7-19 5-25v-17l-3-19-5-16-10-21-9-12-9-10-10-9-15-10-16-7-5-2-14-3Z"/><path fill="#1F0708" d="M1378 608h1v12l-1 15-2 15-3 11-3 7-3 9h-2l-1 5-6 13-8 13-4 7-3 1-1 4-3 3h-2l-1 4-9 9-5 3-13 10 16 4 9 5 9 7 7 6 6 10 3 9-5-3-4-5-3-5-9-8-12-6-13-4h-24l-15 5-11 2-34 1-5 4-6 10-3 5-13 12-9 8-10 7-1 3-5 3-5 1-19 9-14 5-1 3 5 2 8 7 9 9 8 14 4 12 2 2v14l-3-3-6-14-3-9-8-11-5-5-7-6-1-2-4-1-10-7-5-1-25-1-16-4-6-2-2 4-5 9-7 9-12 11-10 9-15 10-23 11-10 3-13 2-5 4-9 26-8 16-13 21-12 11-8 8-1 9 2 40 3 6 2 10 2 4v3l-4-2-6-11-4-9-4-24-1-17-14 6-18 5-1 1h-14l4-3 14-5 8-2 16-9 10-9 8-7 10-11 9-6 5-9-2-1 5-10 7-18 3-7 2-8-14-1-1-3-6-1-11-4-4-3v-2l-5-2-6-4-12-13-4-5-2-4 1-4 6 5 7 8 10 8v2l5 2 14 7 14 4h9l28-3 11-4 10-5h2l1-3 9-6 7-3 11-10 9-11 5-6 5-5 4-6-1-7-8-14-5-10v-3h-2l-3-8v-6h3l9 15 6 12 7 9v2l4 2 10 5 12 3h22l14-3h3v-2l16-6 9-2 17-10 11-9 14-14 9-11 10-14 9-16 8-18 3-12 7-18h2v10l-4 13-3 13-5 12-4 10-3 7 27-2 12-2 16-6 14-8 8-6 6-2 2-4 5-4 6-5 10-13 6-8 1-5 7-8 6-14 5-15 3-6 2-10 2-2 3-16 2-13Z"/><path fill="#BBCDCF" d="m550 621 10 3 16 8 13 9 12 11 8 9 9 14 8 17 5 16 3 19v17l-5 25-8 21-9 16-11 13-8 7-25 10-13 7-10 8-11 4h-25l-14-2-18-6-16-8-13-9-10-9-9-12 3-1 12 9 17 8 17 5 17 2 16-1 15-3 19-7 14-8 6-5 1-4 16-8 12-11 6-8 6-12 5-15 1-8v-27l-4-16-8-16-9-10-8-8-1-6-9-13-10-10-7-8-5-4Z"/><path fill="#DD5968" d="M519 589h20l16 2 16 5 16 7 14 9 11 9 11 11 11 15 8 14 8 20 6 23v45l-4 20-7 20-10 19-1 1 15 4 10 5 12 9v4l-9-3-15-4-8-1-27-1 2-4 6-10 9-14 3-9h2l2-10 4-12 1-15 1-1v-33l-2-2-2-9v-7l-6-11-11-21-9-12-11-12-7-6-4-4-10-6-21-9-11-3-2-2-17-2h-18l-16 2-11 4-12 4-11 6-7 3-11 8-8 7-4 6-3 4h-2l-2 4-9 14-3 1 1-6 8-15 7-10 6-8 9-9 16-12 19-11 20-7 13-3Z"/><path fill="#DE5663" d="m920 609 3 4 3 6 5 11 3 12 1 11v22l-1 11-5 22h-2l-1 6-3 7-2 8-6 11h-2l-2 5-4 8-13 17-8 8-4 6-8 6-7 7-5 5-13 10-7 2-5 4-27 14-16 8-6 1-3 3h-7l-15 5-3 2h-5l-10-18-9-12-6-9-7-6-2-6-2-4v-3l6 2 23 12 16 5 6 1h20l15-4 9-4 16-8 8-4 8-6 5-5 11-9 15-15 9-12 10-14 11-20 8-20 4-14 3-16v-39l-2-10Z"/><path fill="#A9383D" d="M496 485h33l18 4 5 3 11 4 9 3 16 9 11 10 5 3 12 13 5 5 8 11 7 13 1 10-4 1-15-10-16-9-17-8-21-7-11-3-23-4h-30l-20 4h-12l-1-2v-12l2-6 2-1 6-12 8-12 8-6Z"/><path fill="#942730" d="M1280 1007h62l21 3 21 6 16 7 10 8 4 5-1 8-2 5-3 3-4 9-4 7-5-5-7-9-9-8-16-9-20-7-13-3-16-2h-13l-24 1-27 5-24 6-6 3h-2v2l-19 9-11 7-14 12-9 9-4 5-13 2-7 2-2 2-6 1h-11l2-5 8-8h2l2-4 7-7 14-11 13-10 21-13 15-8 21-8 25-6 21-3Z"/><path fill="#1B0809" d="m1073 143 9 3 14 10 6 5 7 8 6 5 7 8 14 18 7 12 3 5 4 11 9 19 1 8 3 6 3 31 4-4 4-8 5-5 1-2h2l1-4 12-11 8-4 6-4h2v-2l12-5 17-5 6-1h20l25 6 16 10 11 8 14 12 13 18 8 13 2 6 3 9 3 7v9l-4-5-8-17-10-16-5-6-4-7-12-11-11-9-2-1v-2l-6-2-14-6-16-5h-24l-16 4-19 9-5 2v2l-6 5-3 1-8 10-5 5-9 14-10 24-5 17-1 10v20l2 13 5 10 6 8 4 7 4 5 5 5 12 21 8 19 5 18 1 14-2 20-2 4-1-3-1-18-4-17-3-5-5-15-8-16-6-11-11-16-13-16-3-6-7-9-5-4-6-10-1-3v-16l3 3 7 14 1 3h2l2 3 1-30 5-22 2-4h2l1-12v-15l-2-15-8-27-6-16-2-7h-2l-6-11-3-7-8-13-5-6-5-5-8-10-3-5-13-11-14-12Z"/><path fill="#D95562" d="m887 266 8 6 9 11 8 12 5 13v2h2l3 13 1 1v18l-1 9v32l2 23 4 25 3 8v3l-9-3-19-7-13-3h-29l-19 3-15 5-9 2-12 9-12 9-5 6-1 3h-3l-3-16-3-11h-2l-8-18-10-15-9-10-7-8 3-1 14 7 18 11 14 7 16 5 6 1h29l19-4 19-7 11-7 7-8 8-16 3-11 1-7v-29l-3-16-6-17-8-16-7-11Z"/><path fill="#8E232C" d="M1051 1097h8l17 3h18l2 2-1 2 5 2 11 9 19 12 27 14 20 8 22 6 25 6 23 3 52 1-1 2-7 2-1 3-22 10-7 2h-25l-39-5-30-7-20-6-16-7-11-4-16-9-3-1v-2l-5-2-9-5-5-5-7-5-7-4-18-18v-6Z"/><path fill="#DD5463" d="M847 136h1l1 39 2 18v13h2l4 23v3l-6-2-7-3h-2l-1-2-14-5-15-3-12-1-7-1-1-1h-38l-16 2-12 4-9 2-4 2h-3v2l-9 3-1 1h-33l-10-6-5-4-4-6-3-9v-4h-2v-12l2 3 6 8 7 6 11 4h19l17-3 16-5 27-9 20-4 17-2 17-1 12-3 14-8 6-5 8-16Z"/><path fill="#1B090A" d="m624 237 5 1-5 4-8 5-6 5-6 8-6 11-6 10-3 11v19l1 15 4 6 8 5 16 9 10 8 7 6 6 7v2l3 1 3 3v3h2l1-6 8-15 3-1 1-5 8-10 8-7 4-2v-2l8-6h2l1-3 6-4 9-3 7-4 9-1 1-3 10-2h33l22 6 3-8h2l2-6 4-6 8-8 3-3 5-3h4v2h-2l-1 3-7 6-7 11-4 9v10l12 9 8 7 9 11 8 11 1 6-4-5-7-7-5-5-6-4-5-6-4-2v-2l-5-2-16-8-13-4-10-2h-25l-16 4-19 9-14 10-5 4-7 8-10 13-8 14-6 16-3 14v25l3 16 7 18 8 15 8 11 3 3-5-1-5-5-16-16-14-8-11-3h-23l-16 4-11 4-5 1-3 3h-3l2-5 10-8 10-4 7-1 11-3 1-1h22l7 3 9 3-3-7-2-12-1-11v-25l3-7v-7l-5-9-9-10-6-6-7-4-5-5-7-3-10-6-13-4-7-2h-33l-1 3-9 3h-6v-2l7-3 13-6h3v-2l12-2h11l11 1-3-10v-25l2-7 7-15 8-15 8-8 7-5 12-6Z"/><path fill="#200708" d="m1427 676 3 2 4 18 1 17v29l-2 18-4 20-4 11-4 14-8 15-10 16-9 12-4 5-5 5-8 7-16 12-3 2 18 3 11 3 14 6 7 5 1 4-9-3-2-1v-2l-9-2-12-2h-37l-9 3-20 2h-41v2l-8 5-8 6-8 7-4 5-10 6-5 4h-2l-1 3-13 7-10 4-5 3-16 6 5 5 7 9-1 5-7-6-8-6-9-1-17 3-6 3h-8v2l-19 3-15 1-7 6-5 7h-2l-2 4-5 6-8 7-9 8-4 2h-3l2-4 10-10 1-2h2l2-4 9-10 7-12-5-5-8-8-11-9-10-9-10-7v-2l5 1 10 7 10 5 1 3 4 2 12 9 8 5h11l22-4 2-1h8l14-5 1-1 11-2 6-3 7-1 21-9 12-6 10-7 4-3 5-2 10-9 6-4 10-9 9-8 5-5 9-9 2-1 1-3 8-7h3l-2 5-7 8-8 11h29l10-1 1-1 16-3 9-2-1-3 8-2 11-8 5-2 10-9 7-8 7-6 10-14 10-17 5-11 3-9 3-8 3-16 2-1 2-5 2-17v-37l-1-18Z"/><path fill="#200808" d="M1004 100h6l-5 5-9 8-7 13-3 4-2 7-2 8-2 7v20l4 5 11 9 9 10 11 15 9 16 8 17 3 5 3 12v3h2l2-4 9-12 9-7 3-3 17-8 1-2 5-1h8l-1 2-13 6-7 4-11 10-5 5-4 7-6 8-2 4h-2l-1 7v9h1v26l-2 13-4 23v33l1 4 1 16 4 11 12 19 16 23 9 16 6 15 4 16 2 15v11l-4 14h-2l-1-31-5-20-5-12-9-16-10-13-14-15-11-9-6-7-9-11-8-8-9-13-1-8 5 5 8 8 8 10 6 5 7 8 6 5-3-10-4-13v-3h-2l-4-11v-30h1l2-13 2-18 2-6 1-2v-30l-2-14-2-9-3-7-5-14-7-15-4-6v-3l-3-1-6-10-3-5-9-10-7-7-15-11-17-9-17-6-23-5-7-1-2-3h21l13 3 8 3 16 6 4 2-5-10-9-12-11-12-2-2-5-2-10-9 2-1 12 6 8 6 5 5 8 7 9 11 5 6h1l2-17 5-13 7-11 9-9Z"/><path fill="#8E242C" d="M1134 1096h7l17 13 15 8 8 3 1 2 16 5h4l1 2 40 6h47l22-3 12-1 24-9h8l1 5-10 9-14 11-11 8-2 1-19 2h-43l-35-3-22-4-23-6-14-4-7-3 2-2-25-13-8-4-11-7-11-9v-2l6-2Z"/><path fill="#BE4148" d="m1166 1087 9 1 16 3h45l14-1h34l28 6 3 3-5 2-25 5-19 2h-21l-18-2-9-3-10-1 3 3 9 3 17 3h44l31-6 13-3h5l11 8 7 6-4 4-8 4-16 4-17 2h-69l-20-4-21-6-21-9-15-9-8-6v-2l8-4Z"/><path fill="#D14750" d="M1274 1030h44l9 2 30 9 12 5 10 6 5 3 10 13 1 7-4 8-7 12-4 4-5 8-4 5h-2l-5-16-8-14-5-6-9-6-19-9-8-3-19-3-3-1h-41l-24 5-11 1-20 7h-2v2l-14 7h-4v-2l12-9 4-5 7-4 5-3h4v-2l13-6 17-5 15-4-1-2 9-2Z"/><path fill="#BCCDCE" d="m558 921 6 1 13 9 1 2v7l-3 5-13 10-15 10-26 15-19 10-6 2-3-18-2-4-10 1-42 12-26 6-27 5-33 4-84 1-5-9v-2h64l28-2 36-5 22-4 34-8 29-9 22-8 20-9 25-13Z"/><path fill="#DD5362" d="M1200 542h2l-1 10-3 12-1 2-2 4-2 8-9 17-12 17-10 11-3 5-14 15-6 3-17 16-5 2-8 6-3 3-11 7-3 1h-9l-19-3-3-1v-3l7-4 4-6h2l2-4 5-7 6-12 3-5 3-13 2-7 1-13h1v9l22-3 16-5 16-8 16-11 12-12 12-16Z"/><path fill="#9E2832" d="M947 1143h9l2 7 8 10 12 13 11 9 2 14 4 14 4 9 4 11v7l4 2 4 6 3 7 10 14 2 4 4 5-1 2-4-2-12-11-8-7-10-9-10-10-11-14-9-12-8-6-25-13-18-12-13-11-8-9-6-8-14-2v-1l35-1h14l13-2 2-2Z"/><path fill="#DA5765" d="m1075 831 9 2 13 3 25 1 7 2 9 7 4 1 5 5 4 4v2l4 2 6 8 4 7-1 4-10-10-14-7-12-3h-29l-20 4-21 8-17 8-3 3h-3v2h-3v2h-3v2h-3v2l-7 4-6 6h-2v2l-5 3-5 6-12 17-6 9-4 7-10 15-12 13-13 10-18 11-5 1 1-9 17-17 5-5 12-20 8-16 8-24 6-5 17-3 17-7 17-9 12-9 12-11 10-9 7-11Z"/><path fill="#8D232D" d="m1042 1103 4 1 6 8 6 8 9 9 12 9 9 6 12 6 4 4 25 11 15 6 5 1 7 3 12 3 23 4 23 4v2l20 1 5 1v2l-16 5-11 4-16 4h-16l-8-2h-7l-15-4-26-11-29-15-9-6-4-4-13-8-11-8-9-10-4-3v-2h-2l-3-3v-2h-2l-5-5-5-5-1-6 6-4 7-3Z"/><path fill="#D95564" d="M262 422h27l16 2 3 2 9 3 9 2 2 3h-39l-22 6-13 6-12 7-7 6-11 14-6 12-3 11v36l1 11v20l-3-3-13-24-5-10-5-15-2-13v-12l3-14 5-12 11-13 8-9 14-8 10-4 15-3Z"/><path fill="#D95664" d="M817 269h10l-1 4-5 2-6 1-5 2-2 4-8 8-5 10-2 1-2 8-23-6h-33l-10 2-1 2-9 2-11 6-6 2-5 3-5 5-4 3h-2v2l-8 7-4 2-2 4-6 7-1 4-3 3-8 16-1 3h-2v-3l-3-1-7-8-5-6-14-11-16-9-8-5-4-5-1-2-1-15v-19l4-13 2-1 1 19 3 11 6 9 8 7 12 5 4 1h19l15-5 12-5 10-6 18-10 15-6 21-5 36-6 18-6 22-11Z"/><path fill="#D95765" d="M1289 758h24l13 4 12 6 12 11 1 4-9-3-10-4-11-3-7-1h-27l-19 4-15 6-15 9-13 11-10 8h-2l-1 2-5 3-13 9-11 7-8 9v10l4 17v25l-3 7-3 1v-17l-2-2-4-12-6-11-9-10-7-7-7-4 1-4 21-8 14-7 5-1 3-3 5-5 13-10 10-10 6-5 6-11 5-6 2-1 34-1 18-4Z"/><path fill="#DA5764" d="M547 389h7l5 1-1 3-8 4-5 1-5 3-4 4-8 3-11 8-11 9-10 9-2 4-5 5-4 4-1 3-4 4-4 6-3 7-7 15-3 5-5 25-3 12-4-2-13-8-11-5-16-4h-14l-2 1h-8l3-3 9-3h25l11 3v-17l4-15 9-19 10-14 9-10 11-9 11-8 10-3 2-4 15-6 9-3 13-3Z"/><path fill="#D24951" d="M1255 1061h37l20 2 16 5 6 4 10 6 10 9 6 9 4 10v15l-5 1-9-10-12-9-10-6-17-7-18-4-9-1v-2l-40 1-6 1h-46l-9-2 1-3 13-5 10-4 21-6 11-3Z"/><path fill="#1E0808" d="M1262 320h2v10l-2 6-2 17-1 28-1 3 5-3 6-5 8-3 10-6 7-3 11-2h29l23 6 10 6 12 11 4 2 6 8 8 11 6 11v2h2l4 12 3 7 3 9 4 19v41l-2 19-3 9-2 14-2 7h-2l-1 8h-2l-1 5-5 15-5 10v3h-3l-1 5h-2l2-12 3-9 3-12 3-9 3-13h2l3-31 1-3 1-11v-29l-2-15-4-18-5-9-5-13-9-15-12-13-11-8-10-5-18-5-7-1h-17l-18 4-4 3-11 6-7 5-5 3-7 8-7 15-5 13-3 2v-8l5-27 4-35 2-22 3-10Z"/><path fill="#DB5563" d="m1341 441 3 1-5 8h-2l-1 4-7 8-7 9-2 5-8 10h-2l-2 4-7 11-12 14-7 8-7 8-3 5-11 13-2 3h-2l-2 4-9 8-1 3-5 3-5 5-9 3-6 2v1l-16 3h-6l1-9 2-9 3-6 1-25h1v13l17-6 11-4 5-2v-2l9-5 5-5 15-13 9-9 8-7 3-3h2l2-4 3-3h2l1-4 8-8 5-3 14-15 9-7 5-6Z"/><path fill="#D95765" d="m1241 720 1 4-5 11-8 16-10 16-9 11-12 13-10 10-13 9-14 8-9 2-12 4h-2v2l-17 4h-22l-12-3-10-5-5-5-7-9-4-7v-2l5 1 16 7 16 3h20l15-3 20-7 19-10 14-10 14-12 18-18 5-5 6-9 8-11Z"/><path fill="#170606" d="M496 485h33l18 4 5 3 11 4 9 3 16 9 11 10 5 3 12 13 5 5 8 11 7 13 1 10-4 1-15-10-16-9-17-8-21-7-11-3-23-4h-30l-20 4h-12l-1-2v-12l2-6 2-1 6-12 8-12 8-6Zm4 7-6 3-7 8-2 4-8 16-1 5 12-1 11-1h34l22 3 31 8 12 5 14 7 4 4 4 1-1-4-5-7-6-5-3-6-12-11-14-9-22-10-8-4-23-5-8-1Z"/><path fill="#D55867" d="M156 628h24l16 4 14 7 10 9 6 5 10 13 8 14 7 19 4 16 1 8v53l-4 17-6 15-6 12-8 11-12 12-2-1 11-14 6-11 8-16 3-13 1-1 1-9 2-2v-38l-1-1-3-21-4-13-12-22-9-12-5-6-4-4-9-5-13-8-15-4h-23l-12 3h-4v2l-6 2-4 3-5 2-12 10-9 11-3 3-8 14h-1l1-8 7-13 10-14 13-13 10-7 14-6Z"/><path fill="#D55765" d="M1059 251h2v8l-6 36-9 40-1 7v27l5 21 9 20 13 23 8 13 9 19 5 15v41l-2 2-4-25-7-21-9-17-16-23-12-19-5-10-1-4-1-16-1-4v-33l4-23 2-13v-20h-1v-15l2-7h2l2-6 8-10 3-5Z"/><path fill="#D2464F" d="M1051 1097h8l17 3h18l2 2-1 2 5 2 11 9 19 12 27 14 17 7v2l-15 2-13 1h-30l-10-6-5-2v-2l-5-2-9-5-5-5-7-5-7-4-18-18v-6Z"/><path fill="#86232C" d="m1021 1116 7 6 7 9 12 14 13 10 9 7 22 14 19 10 17 8 24 9 10 3 1 2-5 2h-30l-13-2-12-4-16-8-12-7-11-8-11-9-8-7-5-5-14-15-5-5-11-14v-5l11-4Z"/><path fill="#DA5865" d="m591 342 5 1 12 7 5 2 5 5 8 6 11 11 6 10 1 2v7l-3 7v25l2 16 2 9 1 5-9-2-7-3h-22l-9 3-7 2-9 2-5 3h-2l2-5 10-9 14-10 10-9 6-10 4-11v-18l-3-12-7-14-9-10-11-7Z"/><path fill="#1C0A0A" d="M664 545h1l3 22 7 19 8 10 15 9 6 2 16 2h22l17-5 6-3h3l-3-9v-25h2l6 20 2 9 8 16 9 15 9 12 3 3 3 5 13 12 6 3 13 8 8 4 5 3 9 3v1h-14l-12-4-12-7-20-14-8-8v-3l-4-2-10-12-9-14-2-7-18 7-16 4h-18l-16-4-16-8-11-9-8-10-5-12-1-4v-23Z"/><path fill="#CC444D" d="M1134 1096h7l17 13 15 8 8 3 1 2 16 5h4l1 2 26 4 6 2-2 2-19 5-20 4h-11l-16-4-10-4 2-2-25-13-8-4-11-7-11-9v-2l6-2Z"/><path fill="#B5C7CA" d="m98 806 4 1 7 8 10 7 12 6 11 3h24l16-4 12-6v-2l-3-2 17-2 13-4 8-5h2l-3 9-8 12-8 9-12 9-14 7-9 2h-23l-11-4-15-8-11-9-8-8-9-13Z"/><path fill="#D75563" d="m1336 460 2 1-5 16-8 16-12 22-8 14-7 14-4 14-1 6v21l2 11-14-7-18-6-18-4 3-6 16-16 1-2h2l2-4 3-3h2l2-4 7-9h2l1-4 5-6h2l2-4 2-4 5-5 8-11 10-16 7-10Z"/><path fill="#8B252D" d="M1315 987h38l1 1 25 3 14 3 16 7 14 8-4 18-2 4-7-6-9-7-15-7-11-4-25-4-16-2h-35l-26 2-17 2h-7l3-3 14-5v-2l19-5Z"/><path fill="#9B2C35" d="M1214 1012h9l-3 3-10 3-22 12-14 8-14 10-16 13-14 13-5 4-10 14-3 2h-18l-11-1 2-7 5-5 4-4 2-5 7-6 5-4 5-5 7-6h2v-2l13-8 7-4h4v-2l21-7 10-2 4-2h4v-2l7-1 4-3 7-1 8-4Z"/><path fill="#DA5764" d="m1052 795 2 3 10 19 4 8-1 6-7 9h-2l-2 4-10 11-6 7-10 8-7 3-6 4-3 3-14 7-7 2-28 3h-9l-14-4-14-7-5-3v-2l9 1 7 2 16 1 17-2 20-6 21-10 12-8 11-9 8-10 5-10 1-3Z"/><path fill="#D25461" d="m1115 187 5 4 9 14 3 5 4 10 2 5h2l8 20 8 26 2 9 1 10v15l-2 12-2 1-4 17-2 8-1 31-3-2v-2h-2l-8-14-3-7 3-16 5-24 1-7v-35l-3-19-6-21-9-21-8-16Z"/><path fill="#D45563" d="M997 96h16l-2 4-9 2-11 9-8 9-7 14-2 6-2 17h-3l-13-15-5-5-5-6-8-6-10-6-6-2 10 9 5 2 10 10 10 13 4 7 2 6-9-3-18-6-1-3-2-12-6-12-10-11v-3h11l7 2h11l17-4 16-8 15-7Z"/><path fill="#8A262D" d="M1364 968h32l14 3 11 5 7 4-1 18-2 7-11-7v-3l-5-1-10-3-10-3-4-2-13-2-12-1h-43l-13 1h-12l5-5 10-5 9-2 39-3Z"/><path fill="#8D2830" d="m998 1126 7 1 6 8 2 5 5 6 7 6 7 8 1 3 4 2 8 8 14 11 12 8 13 8 7 5-2 1-10-2-7-2-25-6-14-7-14-12-10-11-11-14-12-16v-5Z"/><path fill="#D75361" d="m858 193 3 3 6 16 2 6 8 11 10 9 18 12 15 10 10 9 9 10 2 2-5 15-4 10-3 7-3-2-4-13-6-10-8-12-11-13-12-11-12-9-6-7-4-11-5-22Z"/><path fill="#1D090B" d="M302 425h6l1 2 15 3 4 4h-39l-22 6-13 6-12 7-7 6-11 14-6 12-3 11v36l1 11v20l-3-3-2-6-1-8-2-8-2 1-1-6h1v-6l-2-7v-23l2-11 2-1 2-9 3-5 8-12 10-10 7-5 1-2 8-3 19-10 2-1h9l11-2Z"/><path fill="#1F0A0A" d="M547 389h7l5 1-1 3-8 4-5 1-5 3-4 4-8 3-11 8-11 9-10 9-2 4-5 5-4 4-1 3-4 4-4 6-3 7-7 15-3 5-5 25-3 12-4-2-13-8-11-5-16-4h-14l-2 1h-8l3-3 9-3h25l10 3v2l9 3 7 3 1-8 4-16 6-18 6-10 7-11 4-7 6-5 2-4 10-11 5-4 7-3 5-5 10-6 12-5 10-4h2v-2h-6l2-2Z"/><path fill="#D75764" d="M987 127h1l1 16 4 17 8 16 8 11 13 16 12 17 9 15 7 14-4 7-6 8h-2l-5-17-8-16-9-17-10-14-9-10-5-6-11-9-2-3v-20l4-14 1-5Z"/><path fill="#BE444A" d="M157 536h7l8 7 3 7 5 8 1 3-19 2h-14l-2 2-4 2-16 6-11 6-13 10-4 2 1-7 5-9h2l2-6 7-8 8-7 5-5 13-6h2v-2l10-4Z"/><path fill="#CC444D" d="m1042 1103 4 1 6 8 6 8 9 9 12 9 9 6 12 6 4 4 8 4-4 2-13 1h-16l-16-10-11-10-5-5-2-4h-2l-3-3v-2h-2l-5-5-5-5-1-6 6-4 7-3Z"/><path fill="#280809" d="m1471 488 4 2 3 4 3 7 7 13 6 22 1 7v32l-2 15-2 5h-2l-2 6-7 12-5 6-7 4h-2l4 13 1 10 1 2v23l-2-2-4-24-3-10-18-35-3-4-3-8v-15l3 1 5 14 3 9 13 20 5-3 3-3 1-3 3-1 6-10 3-10 2-3 2-11v-29l-5-21-3-11-4-12-4-6Z"/><path fill="#230709" d="M819 981h9l4 2-8 6-6 3-6 6-1 3-4 4-8 12-2 5h-2l-2 4-9 14-4 6 1 4 5 5 9 6 13 5 19 3 16 1-4 3-6 2h-21l-14-3-14-7-3-3-5-3-3-3-4 2-6 4-5 3-8 6-6 1v-3l10-9 8-7 7-6 3-5 5-5 6-10 5-9 8-10 7-9 7-7h2v-2l-3-1 4-5Z"/><path fill="#D65864" d="M764 567h1l1 25 2 5v4l-15 6-11 3h-22l-16-2-10-4-11-7-8-9-1-4 5 2 7 5 3 1v2l9 2 6 1h20l11-3 12-6 6-5 10-15Z"/><path fill="#EB8489" d="M916 1215h10l2 4h3l14 20 29 44 11 18v3l-13-3-5-4-13-21-14-22-6-10-7-9-11-17Z"/><path fill="#D04A50" d="M1219 1035h9l-2 2-6 3h-2v2l-19 9-11 7-14 12-9 9-4 5-13 2-7 2-2 2-6 1h-11l2-5 8-8 8-5 4-1 10-7 14-8 27-13 19-8Z"/><path fill="#92242E" d="m1380 1053 4 2 10 13 1 7-4 8-7 12-4 4-5 8-4 5h-2l-5-16-6-11-1-5 15-15 7-9Z"/><path fill="#952530" d="M1051 1097h8l17 3h18l2 2-1 2 5 2 11 9 1 2-8 4-25 7-4-2-7-4-18-18v-6Z"/><path fill="#D65866" d="M618 237h6l-4 4-12 6-11 10-12 23-3 7-2 7v25l2 6v4h-11l-10-1v-1h5v-21l3-17 5-14 6-10 9-11 13-10 12-6Z"/><path fill="#C64149" d="m1021 1116 7 6 7 9 12 14 13 10 9 7 1 2h-13l-16-2-16-17-5-5-11-14v-5l11-4Z"/><path fill="#F8C7C7" d="M606 842h14l9 3 2 2-1 5-7 6-14 6-12 3-15 1-6-2-1-1 1-7 5-5 9-6 11-4Z"/><path fill="#F6ACAD" d="m475 1049 8 1 4 5 1 2v6l-6 8-7 6-10 6-7 2h-11l-3-2v-7l7-10 10-9 8-5h2v-2Z"/><path fill="#E48285" d="M833 1148h12l5 5 5 4 7 9 11 11 13 9 16 9 19 10v2h-9l-15-5-16-8-12-8-13-10-16-16-7-9Z"/><path fill="#D35865" d="m920 883 8 4 4 4 17 6 1 2 14 2-2 11-6 14-5 13-3 5 1 3-6 9-6 4h-2l1-5 6-14 2-10v-11l-2-8-6-9-7-7v-2l-4-2-5-6Z"/><path fill="#F4CFCE" d="M397 504h14l16 4 16 8 9 6 3 3v11l-6-1-14-8-15-6-25-6-11-3 1-5Z"/><path fill="#83272C" d="M974 1135h7l7 9 9 13 11 13 16 16-1 2-7-2-3-3-15-7-4-4-12-9-8-8-8-10-1-6Z"/><path fill="#C9454E" d="M1297 1021h57l16 3 15 5 3 2-1 9-3 7-5-1-16-9-20-7-13-3-23-3-16-1v-1Z"/><path fill="#882830" d="m174 550 3 4 4 4v3l-19 2h-14l-2 2-4 2-16 6-11 6-13 10-4 2 1-7 4-8h5l10-9 15-8 18-6 12-2Z"/><path fill="#200909" d="M465 1137h6l-2 4-14 7-8 3-15 5h-26l-12-1-12-4-8-7 4-1 21 3h26l20-3Z"/><path fill="#B6C5C7" d="M154 649h14l16 4 16 8 11 8 7 7 4 8-11-3-2-1-15-1v-1l6-1-9-9-11-7-10-4-10-2-18-1 3-2Z"/><path fill="#F7AAAB" d="M398 1064h8l2 2-1 6-5 9-8 7-7 6-1 2h-10l-3-2v-8l8-12 9-7Z"/><path fill="#8C272E" d="m1042 1103 4 1 6 8 6 8 7 7-2 3-17 5-1-3h-2l-3-3v-2h-2l-5-5-5-5-1-6 6-4 7-3Z"/><path fill="#89262E" d="m1351 1085 5 5 5 8 3 8v15l-5 1-9-10-12-9-8-5 3-2 14-9Z"/><path fill="#270809" d="M994 1067h3l-2 4-7 5-2 4-2-1-13 6h-2l-1 3-12 3-5 1h-21l-11-3-11-7-4-5 8 1 9 3 5 2 6 1h12l13-2 18-5 11-6Z"/><path fill="#D35763" d="M414 199h2l-1 8-3 4h-2l-2 5-9 10-5 5-7 3-5 1h-11l-9-2 5-4 8-9 13-2 10-4 13-11Z"/><path fill="#F9CBCC" d="M100 855h9l9 2 9 5 4 4v7l-3 2h-13l-14-4-8-5-2-2 1-5 5-3Z"/><path fill="#1D0B0C" d="M747 700h6l-2 4-6 5-7 8-6 9-4 6h-2l-2 6-2 3-1 5h-2l-2 10-2 14-1 2h-2l-1-2v-17l4-16 5-12 7-8 4-6 5-1v-2l10-6Z"/><path fill="#2C090B" d="M1442 447h2v10l-1 9v22l4 26 7 20v4l-4-2-7-10-2-7-3-8-2-14v-27l4-16Z"/><path fill="#E18F91" d="M84 800h3l11 21 5 7 2 5 6 5 1 3-3 1-19 1-4 1v-11l2-13-4-9-1-7Z"/><path fill="#CA535F" d="M909 994h3l3 25 2 9v6l-4-5-9-12-9-6-6-2-9-2v-3l20-6Z"/><path fill="#CC5A67" d="M290 299h4l-1 3-14 10-12 11-9 10-6 7-2 5-5-2-8-4 2-1 2-4 10-9 16-12 19-12Z"/><path fill="#87282E" d="m1021 1116 7 6 7 9 3 4-1 4-7 3h-5l-1 2-5-5-10-13v-5l11-4Z"/><path fill="#F1CCCD" d="M100 598h4l-3 31-2 18-2 4-1-9-2-3-4-23v-8l5-6Z"/><path fill="#7F2B30" d="M1100 1058h3l-1 3-5 3-11 14-4 5-5 9-1 1h-10l-6-2 5-6h2l2-4 4-4 4-1 5-6 14-10Z"/><path fill="#8F2933" d="M1426 953h2v21l-9-3-23-7-1-2 10-3Z"/><path fill="#B5525C" d="m1494 541 2 1v2h2v46l-4 10-9 10-9 10-6 12h-2l-2-5v-4l10-6 9-14 4-8 2-1 2-8 1-11Z"/><path fill="#A1CBD4" d="m737 4 4 1-9 3-19 6-10 4-8 4-9 2h-62l4-2 7-2h56l17-8 18-6Z"/><path fill="#3D0C0F" d="m1453 769 2 2 1 30 2-1 1 7v30l-3-1-3-13-1-18v-30Z"/><path fill="#70B1C2" d="M500 1264h7v1h-7Z"/><path fill="#70B2C3" d="M455 1264h6v1h-6Z"/><path fill="#71B2C3" d="M1195 1297h5v1h-5Z"/><path fill="#71B3C4" d="m1069 1400 4 1Z"/><path fill="#70B2C3" d="m517 1263 4 1ZM1623 779l1 4Z"/><path fill="#6FB0C1" d="m1623 741 1 4Z"/><path fill="#6FB1C1" d="m1613 648 1 4Z"/><path fill="#70B2C3" d="m1613 604 1 4Z"/><path fill="#70B1C1" d="m1035 1400 3 1Z"/><path fill="#70B1C2" d="m1208 1296 3 1ZM1217 1295l3 1Z"/><path fill="#72B4C5" d="m444 1263 3 1Z"/><path fill="#6FB1C2" d="m528 1262 3 1Z"/><path fill="#70B2C3" d="m436 1262 3 1Z"/><path fill="#71B3C4" d="m814 1220 3 1Z"/><path fill="#73B4C5" d="M1513 1019Z"/><path fill="#6FB2C2" d="M1606 854Z"/><path fill="#70B2C2" d="M1622 789Z"/><path fill="#71B3C4" d="M1622 731Z"/><path fill="#70B2C2" d="M1612 658Z"/><path fill="#71B2C2" d="M1612 594Z"/><path fill="#76B9C9" d="m1055 1401 2 1Z"/><path fill="#70B2C1" d="m1078 1399 2 1Z"/><path fill="#72B4C4" d="m1027 1399 2 1Z"/><path fill="#6EAFC0" d="m1084 1398 2 1Z"/><path fill="#73B4C5" d="M1176 1335Z"/><path fill="#96C7CF" d="m929 1336 2 1Z"/><path fill="#73B5C5" d="M1176 1316Z"/><path fill="#71B3C4" d="m1225 1294 2 1Z"/><path fill="#71B2C3" d="m1237 1292 2 1Z"/><path fill="#72B4C4" d="m1252 1289 2 1Z"/><path fill="#6FB1C2" d="m1256 1288 2 1Z"/><path fill="#6FB0C2" d="m537 1261 2 1Z"/><path fill="#6EB0C1" d="m430 1261 2 1Z"/><path fill="#73B5C6" d="m545 1260 2 1Z"/><path fill="#6DAFC1" d="m424 1260 2 1Z"/><path fill="#70B2C2" d="m551 1259 2 1Z"/><path fill="#73B5C6" d="m418 1259 2 1Z"/><path fill="#71B4C5" d="m557 1258 2 1Z"/><path fill="#71B3C4" d="m409 1257 2 1Z"/><path fill="#71B4C4" d="m572 1255 2 1Z"/><path fill="#70B2C3" d="m599 1248 2 1Z"/><path fill="#70B2C2" d="M1507 1055Z"/><path fill="#72B3C4" d="M1509 1046Z"/><path fill="#70B1C2" d="M1510 1040Z"/><path fill="#6EB0C0" d="M1511 1034Z"/><path fill="#70B2C3" d="M1512 1027Z"/><path fill="#72B4C4" d="M1514 1010Z"/><path fill="#70B1C2" d="M1602 876Z"/><path fill="#72B4C4" d="M1604 867Z"/><path fill="#6EB0C1" d="M1605 861Z"/><path fill="#73B4C5" d="M1620 803Z"/><path fill="#72B4C4" d="M1621 797Z"/><path fill="#6EAFC0" d="M1620 719Z"/><path fill="#71B3C3" d="M1610 681Z"/><path fill="#74B6C6" d="M1611 666Z"/><path fill="#6FAFC0" d="M1611 588Z"/><path fill="#72B3C4" d="M1610 582Z"/><path fill="#71B2C3" d="M1609 577Z"/><path fill="#71B3C3" d="M1608 572Z"/><path fill="#73B4C4" d="M1606 563Z"/><path fill="#72B3C4" d="M1605 559ZM1604 555Z"/><path fill="#6FB0C2" d="M1022 1398Z"/><path fill="#70B1C1" d="M1090 1397Z"/><path fill="#72B2C4" d="M1017 1397Z"/><path fill="#72B4C5" d="M1095 1396Z"/><path fill="#70B1C1" d="M1013 1396ZM1099 1395Z"/><path fill="#75B7C7" d="M1009 1395Z"/><path fill="#72B5C5" d="M1103 1394Z"/><path fill="#6DAEBE" d="M1006 1394Z"/><path fill="#6CACBD" d="M1106 1393Z"/><path fill="#6EB0C0" d="M1003 1393Z"/><path fill="#75B7C7" d="M1110 1392Z"/><path fill="#6CACBD" d="M1000 1392Z"/><path fill="#71B3C3" d="M1113 1391ZM997 1391Z"/><path fill="#71B2C3" d="M1116 1390Z"/><path fill="#72B2C4" d="M1119 1389Z"/><path fill="#70B1C1" d="M992 1389Z"/><path fill="#72B3C3" d="M1122 1388Z"/><path fill="#6BADBD" d="M990 1388Z"/><path fill="#75B7C7" d="M1125 1387Z"/><path fill="#71B3C3" d="M1130 1385Z"/><path fill="#76B9C9" d="M1135 1383Z"/><path fill="#6DAEBF" d="M980 1383Z"/><path fill="#72B5C5" d="M1137 1382Z"/><path fill="#71B3C3" d="M978 1382Z"/><path fill="#70B1C1" d="M1139 1381Z"/><path fill="#71B3C3" d="M1141 1380Z"/><path fill="#70B1C1" d="M975 1380Z"/><path fill="#74B6C7" d="M1143 1379Z"/><path fill="#72B3C4" d="M972 1378Z"/><path fill="#72B3C3" d="M1148 1376Z"/><path fill="#74B6C6" d="M968 1375Z"/><path fill="#72B4C5" d="M1151 1374Z"/><path fill="#6EAFC0" d="M967 1374Z"/><path fill="#73B5C4" d="M1155 1371Z"/><path fill="#6CADBE" d="M1156 1370Z"/><path fill="#6FB0C1" d="M957 1364Z"/><path fill="#76B8C8" d="M956 1363Z"/><path fill="#6DADBE" d="M1164 1362Z"/><path fill="#74B6C6" d="M1165 1361Z"/><path fill="#72B4C5" d="M953 1359Z"/><path fill="#74B6C7" d="M1168 1357Z"/><path fill="#6DAEBE" d="M951 1356Z"/><path fill="#73B5C4" d="M949 1353Z"/><path fill="#6FB1C1" d="M1172 1349Z"/><path fill="#77B9CA" d="M1173 1347Z"/><path fill="#74B6C7" d="M1174 1344Z"/><path fill="#70B1C2" d="M1175 1340Z"/><path fill="#97C6CF" d="M931 1337Z"/><path fill="#72B4C5" d="M1175 1311Z"/><path fill="#6EB0C1" d="M1174 1307Z"/><path fill="#72B3C3" d="M1173 1303Z"/><path fill="#75B7C7" d="M1172 1299Z"/><path fill="#71B2C3" d="M1232 1293Z"/><path fill="#72B4C5" d="M1243 1291ZM1248 1290ZM1261 1287ZM1265 1286Z"/><path fill="#75B7C7" d="M1269 1285Z"/><path fill="#6DAEBF" d="M1272 1284Z"/><path fill="#74B5C5" d="M1276 1283Z"/><path fill="#6DAEBF" d="M1279 1282Z"/><path fill="#76B9C9" d="M1283 1281Z"/><path fill="#74B6C7" d="M1286 1280Z"/><path fill="#71B2C3" d="M1289 1279Z"/><path fill="#72B4C5" d="M1292 1278Z"/><path fill="#71B2C3" d="M1295 1277Z"/><path fill="#77B7C6" d="M887 1277Z"/><path fill="#73B6C6" d="M1298 1276Z"/><path fill="#77B9CA" d="M1301 1275Z"/><path fill="#73B2C2" d="M884 1275Z"/><path fill="#6CACBD" d="M1303 1274Z"/><path fill="#70B1C1" d="M1306 1273Z"/><path fill="#6FADBC" d="M881 1273Z"/><path fill="#76B9C9" d="M1309 1272Z"/><path fill="#6EAFBF" d="M1311 1271Z"/><path fill="#6FAEBE" d="M878 1271Z"/><path fill="#75B7C7" d="M1314 1270Z"/><path fill="#6DAEBE" d="M1316 1269Z"/><path fill="#6FACBC" d="M875 1269Z"/><path fill="#75B7C7" d="M1319 1268Z"/><path fill="#70B1C1" d="M1321 1267Z"/><path fill="#70B0BF" d="M872 1267Z"/><path fill="#76B8C8" d="M1326 1265Z"/><path fill="#75B6C5" d="M869 1265Z"/><path fill="#70B1C1" d="M1328 1264Z"/><path fill="#6DAEBF" d="M1330 1263Z"/><path fill="#70AEBE" d="M865 1262Z"/><path fill="#76B9C9" d="M1337 1260Z"/><path fill="#74B6C7" d="M1339 1259Z"/><path fill="#74B4C4" d="M861 1259Z"/><path fill="#74B6C6" d="M1341 1258Z"/><path fill="#6EB0C1" d="M414 1258Z"/><path fill="#74B6C6" d="M1343 1257Z"/><path fill="#70B2C3" d="M563 1257Z"/><path fill="#72B4C5" d="M1345 1256Z"/><path fill="#76B6C6" d="M857 1256Z"/><path fill="#72B5C5" d="M568 1256Z"/><path fill="#72B4C5" d="M405 1256Z"/><path fill="#74B6C6" d="M1347 1255Z"/><path fill="#72B1C0" d="M856 1255Z"/><path fill="#6EB0C2" d="M401 1255Z"/><path fill="#75B7C7" d="M1349 1254Z"/><path fill="#71B3C5" d="M577 1254Z"/><path fill="#71B3C4" d="M397 1254Z"/><path fill="#75B7C7" d="M1351 1253Z"/><path fill="#6FB1C2" d="M581 1253Z"/><path fill="#6BACBE" d="M394 1253Z"/><path fill="#70B1C3" d="M585 1252Z"/><path fill="#6EAFC1" d="M390 1252Z"/><path fill="#72B4C5" d="M589 1251Z"/><path fill="#72B5C5" d="M386 1251Z"/><path fill="#75B6C5" d="M850 1250Z"/><path fill="#76B8C9" d="M593 1250Z"/><path fill="#70B2C3" d="M383 1250Z"/><path fill="#6DAEBF" d="M1358 1249Z"/><path fill="#70AFBF" d="M849 1249Z"/><path fill="#6FB1C2" d="M596 1249ZM380 1249Z"/><path fill="#72B4C5" d="M1360 1248Z"/><path fill="#6EADBD" d="M848 1248Z"/><path fill="#6BADBD" d="M377 1248Z"/><path fill="#72B4C5" d="M603 1247Z"/><path fill="#76B9C9" d="M373 1247Z"/><path fill="#6DB0C1" d="M606 1246Z"/><path fill="#6CACBD" d="M1365 1245Z"/><path fill="#75B7C8" d="M610 1245Z"/><path fill="#6DB0C1" d="M368 1245Z"/><path fill="#73B6C6" d="M1367 1244Z"/><path fill="#70B2C3" d="M613 1244Z"/><path fill="#6FB1C2" d="M365 1244Z"/><path fill="#6DB0C1" d="M616 1243Z"/><path fill="#70B1C3" d="M362 1243Z"/><path fill="#6DAEBF" d="M1370 1242Z"/><path fill="#6CADBE" d="M619 1242Z"/><path fill="#72B5C5" d="M359 1242Z"/><path fill="#77B9CA" d="M1372 1241Z"/><path fill="#76B9C9" d="M623 1241ZM626 1240Z"/><path fill="#6DB0C1" d="M354 1240Z"/><path fill="#71B2C3" d="M1375 1239Z"/><path fill="#6BADBD" d="M628 1239Z"/><path fill="#72B5C5" d="M351 1239Z"/><path fill="#71AFBF" d="M838 1238Z"/><path fill="#6DAEC0" d="M631 1238Z"/><path fill="#6DAEBF" d="M1378 1237Z"/><path fill="#75B5C4" d="M837 1237Z"/><path fill="#6FB1C2" d="M634 1237Z"/><path fill="#75B7C8" d="M346 1237Z"/><path fill="#76B9C9" d="M637 1236Z"/><path fill="#6BADBD" d="M344 1236Z"/><path fill="#6DAEBF" d="M1381 1235Z"/><path fill="#6CAEBF" d="M639 1235Z"/><path fill="#72B4C5" d="M642 1234ZM339 1234Z"/><path fill="#6CACBD" d="M1384 1233Z"/><path fill="#6CAEBF" d="M337 1233Z"/><path fill="#73B6C6" d="M647 1232Z"/><path fill="#70B1C1" d="M1387 1231Z"/><path fill="#74B2BF" d="M832 1231Z"/><path fill="#6AACBD" d="M649 1231Z"/><path fill="#76B9C9" d="M332 1231Z"/><path fill="#71B3C4" d="M652 1230Z"/><path fill="#73B6C6" d="M330 1230Z"/><path fill="#75B7C7" d="M1390 1229Z"/><path fill="#70B3C3" d="M328 1229Z"/><path fill="#6FB1C2" d="M657 1228Z"/><path fill="#6FB1C1" d="M326 1228Z"/><path fill="#76B9C9" d="M660 1227Z"/><path fill="#6EB0C1" d="M324 1227Z"/><path fill="#71B2C3" d="M1394 1226Z"/><path fill="#6FB1C2" d="M662 1226Z"/><path fill="#6DAFC0" d="M322 1226ZM320 1225Z"/><path fill="#71B2C4" d="M667 1224Z"/><path fill="#6FB1C2" d="M318 1224Z"/><path fill="#72B4C5" d="M1398 1223Z"/><path fill="#70B2C3" d="M316 1223Z"/><path fill="#6BACBD" d="M1399 1222Z"/><path fill="#75B8C9" d="M672 1222Z"/><path fill="#71B3C4" d="M314 1222Z"/><path fill="#6FB1C2" d="M674 1221Z"/><path fill="#75B7C8" d="M312 1221Z"/><path fill="#6BACBE" d="M676 1220Z"/><path fill="#70B3C2" d="M1403 1219Z"/><path fill="#71B4C4" d="M810 1219Z"/><path fill="#6DB0C1" d="M807 1218Z"/><path fill="#73B6C6" d="M681 1218Z"/><path fill="#72B4C5" d="M804 1217Z"/><path fill="#71B3C4" d="M683 1217Z"/><path fill="#6CAEBF" d="M305 1217Z"/><path fill="#6FB0C2" d="M685 1216Z"/><path fill="#72B5C5" d="M303 1216Z"/><path fill="#77B8C9" d="M1408 1215Z"/><path fill="#74B7C7" d="M799 1215Z"/><path fill="#6CAEBF" d="M687 1215Z"/><path fill="#71B2C3" d="M1409 1214ZM797 1214Z"/><path fill="#6CACBD" d="M1410 1213Z"/><path fill="#6DAFC0" d="M795 1213Z"/><path fill="#6CAEBF" d="M298 1213Z"/><path fill="#6DAFBF" d="M793 1212Z"/><path fill="#75B8C9" d="M296 1212Z"/><path fill="#6DAFBF" d="M791 1211Z"/><path fill="#6DAFC0" d="M789 1210ZM293 1210Z"/><path fill="#6FB1C2" d="M787 1209Z"/><path fill="#75B8C9" d="M291 1209Z"/><path fill="#70B2C3" d="M785 1208Z"/><path fill="#76B9C9" d="M702 1208Z"/><path fill="#76B8C8" d="M1417 1207Z"/><path fill="#72B4C5" d="M783 1207Z"/><path fill="#73B6C7" d="M704 1207Z"/><path fill="#70B2C3" d="M288 1207Z"/><path fill="#71B2C3" d="M1418 1206Z"/><path fill="#73B5C6" d="M781 1206Z"/><path fill="#74B5C6" d="M706 1206Z"/><path fill="#77B9CA" d="M286 1206Z"/><path fill="#6FB0C2" d="M1419 1205Z"/><path fill="#73B6C6" d="M779 1205Z"/><path fill="#72B4C6" d="M708 1205Z"/><path fill="#76B9C9" d="M777 1204Z"/><path fill="#6FB1C2" d="M710 1204Z"/><path fill="#73B6C7" d="M283 1204Z"/><path fill="#75B7C8" d="M775 1203Z"/><path fill="#6FB1C2" d="M712 1203Z"/><path fill="#75B8C9" d="M773 1202Z"/><path fill="#6EB0C1" d="M714 1202Z"/><path fill="#70B1C3" d="M280 1202Z"/><path fill="#76B9C9" d="M771 1201Z"/><path fill="#6DAFBF" d="M716 1201Z"/><path fill="#77B9C9" d="M1425 1200Z"/><path fill="#6CAEBF" d="M718 1200Z"/><path fill="#6FB1C2" d="M277 1200Z"/><path fill="#73B4C5" d="M1426 1199Z"/><path fill="#6EAFC1" d="M720 1199Z"/><path fill="#71B3C3" d="M1427 1198Z"/><path fill="#6DB0C1" d="M722 1198Z"/><path fill="#6CAEBF" d="M274 1198Z"/><path fill="#6FB1C2" d="M724 1197Z"/><path fill="#71B3C3" d="M1428 1196Z"/><path fill="#6DAFC0" d="M762 1196Z"/><path fill="#72B5C5" d="M726 1196ZM760 1195Z"/><path fill="#75B8C9" d="M728 1195Z"/><path fill="#6CADBE" d="M268 1194Z"/><path fill="#73B6C7" d="M757 1193Z"/><path fill="#71B3C3" d="M1432 1192Z"/><path fill="#6AACBD" d="M733 1192Z"/><path fill="#6EAFC0" d="M265 1192Z"/><path fill="#72B4C4" d="M1433 1191Z"/><path fill="#6DB0C1" d="M735 1191Z"/><path fill="#72B3C3" d="M1434 1190Z"/><path fill="#76B8CA" d="M753 1190Z"/><path fill="#75B8C8" d="M737 1190Z"/><path fill="#71B2C3" d="M262 1190Z"/><path fill="#72B3C3" d="M1435 1189Z"/><path fill="#6FB1C2" d="M752 1189Z"/><path fill="#72B3C3" d="M1436 1188Z"/><path fill="#73B5C6" d="M259 1188Z"/><path fill="#72B3C3" d="M1437 1187Z"/><path fill="#71B2C4" d="M749 1187Z"/><path fill="#6CADBF" d="M742 1187Z"/><path fill="#72B3C3" d="M1438 1186Z"/><path fill="#72B4C5" d="M1439 1185Z"/><path fill="#6DAEC0" d="M255 1185Z"/><path fill="#72B5C5" d="M1440 1184Z"/><path fill="#76B8C8" d="M1441 1183Z"/><path fill="#74B6C7" d="M252 1183Z"/><path fill="#6FB1C2" d="M248 1180Z"/><path fill="#76B8CA" d="M245 1178Z"/><path fill="#6BACBE" d="M244 1177Z"/><path fill="#72B3C3" d="M1448 1175Z"/><path fill="#76B9C9" d="M241 1175Z"/><path fill="#6FB1C2" d="M240 1174Z"/><path fill="#73B6C7" d="M236 1171Z"/><path fill="#6FB1C1" d="M1452 1170Z"/><path fill="#75B8C8" d="M1453 1169Z"/><path fill="#73B6C7" d="M231 1167Z"/><path fill="#6CADBE" d="M230 1166Z"/><path fill="#73B6C6" d="M1456 1165Z"/><path fill="#75B7C8" d="M225 1162Z"/><path fill="#75B6C7" d="M1459 1161Z"/><path fill="#6DAFC0" d="M224 1161Z"/><path fill="#6EAFC0" d="M1461 1158Z"/><path fill="#6CADBE" d="M1463 1155Z"/><path fill="#75B8C8" d="M217 1155Z"/><path fill="#70B2C3" d="M216 1154Z"/><path fill="#6CAEBF" d="M215 1153Z"/><path fill="#77B9C9" d="M1466 1151Z"/><path fill="#6BACBD" d="M1467 1149Z"/><path fill="#6FB0C2" d="M1469 1146Z"/><path fill="#77B9CA" d="M206 1145Z"/><path fill="#72B4C5" d="M205 1144Z"/><path fill="#74B5C6" d="M1471 1143Z"/><path fill="#6DB0C1" d="M204 1143Z"/><path fill="#73B3C3" d="M200 1140Z"/><path fill="#75B6C7" d="M1474 1138Z"/><path fill="#70AEBD" d="M198 1137Z"/><path fill="#6EAFBF" d="M1475 1136Z"/><path fill="#74B3C2" d="M195 1135Z"/><path fill="#70AEBC" d="M194 1134Z"/><path fill="#71AFBF" d="M193 1133Z"/><path fill="#74B3C2" d="M192 1132Z"/><path fill="#74B5C6" d="M1478 1131Z"/><path fill="#77B7C6" d="M191 1131Z"/><path fill="#71B2C3" d="M1479 1129Z"/><path fill="#6EAFBF" d="M1480 1127Z"/><path fill="#6DAFBF" d="M1488 1111Z"/><path fill="#70B2C3" d="M1489 1109Z"/><path fill="#75B7C7" d="M1490 1107Z"/><path fill="#6EAFC0" d="M1492 1102Z"/><path fill="#75B7C8" d="M1493 1100Z"/><path fill="#6CADBE" d="M1494 1097Z"/><path fill="#75B7C7" d="M1495 1095Z"/><path fill="#6EB0C1" d="M1496 1092Z"/><path fill="#75B8C8" d="M1498 1087Z"/><path fill="#74B5C5" d="M1499 1084Z"/><path fill="#73B6C6" d="M1500 1081Z"/><path fill="#74B6C6" d="M1501 1078Z"/><path fill="#6BACBD" d="M1502 1074Z"/><path fill="#6FB1C1" d="M1503 1071Z"/><path fill="#75B8C8" d="M1504 1068Z"/><path fill="#72B3C4" d="M1505 1064Z"/><path fill="#71B3C3" d="M1506 1060ZM1508 1051Z"/><path fill="#72B4C4" d="M1519 1005Z"/><path fill="#70B2C2" d="M1522 1003Z"/><path fill="#77B8C9" d="M1525 1001Z"/><path fill="#6DADBE" d="M1526 1000Z"/><path fill="#77B9CA" d="M1530 997Z"/><path fill="#71B2C3" d="M1531 996Z"/><path fill="#6EAFC0" d="M1532 995Z"/><path fill="#6AACBC" d="M1533 994Z"/><path fill="#6DAEBE" d="M1544 983Z"/><path fill="#70B1C1" d="M1545 982Z"/><path fill="#74B5C5" d="M1546 981Z"/><path fill="#76B9C9" d="M1547 980Z"/><path fill="#6CACBD" d="M1552 974Z"/><path fill="#72B4C5" d="M1553 973Z"/><path fill="#6DAEBF" d="M1557 968Z"/><path fill="#75B8C8" d="M1558 967Z"/><path fill="#73B5C6" d="M1561 963Z"/><path fill="#74B6C6" d="M1564 959Z"/><path fill="#6FB1C1" d="M1566 956Z"/><path fill="#6CADBE" d="M1570 950Z"/><path fill="#6EB0C0" d="M1572 947Z"/><path fill="#72B4C5" d="M1574 944Z"/><path fill="#73B4C5" d="M1577 939Z"/><path fill="#6CADBE" d="M1578 937Z"/><path fill="#77B9C9" d="M1581 932Z"/><path fill="#73B5C6" d="M1582 930Z"/><path fill="#72B4C4" d="M1583 928Z"/><path fill="#72B3C4" d="M1584 926Z"/><path fill="#72B4C5" d="M1585 924Z"/><path fill="#73B5C4" d="M1586 922Z"/><path fill="#75B7C8" d="M1587 920Z"/><path fill="#6CADBE" d="M1589 915Z"/><path fill="#70B1C2" d="M1590 913Z"/><path fill="#6FB0C1" d="M1592 908Z"/><path fill="#72B2C4" d="M1594 903Z"/><path fill="#6FB0C0" d="M1595 900Z"/><path fill="#6CADBE" d="M1596 897Z"/><path fill="#6DAEBE" d="M1597 894Z"/><path fill="#6FB0C1" d="M1598 891Z"/><path fill="#71B3C3" d="M1599 888Z"/><path fill="#6DAEBF" d="M1600 884Z"/><path fill="#75B7C7" d="M1601 881Z"/><path fill="#70B1C1" d="M1603 872Z"/><path fill="#72B4C5" d="M1607 848Z"/><path fill="#75B8C8" d="M1608 844Z"/><path fill="#75B7C7" d="M1609 841Z"/><path fill="#6EAFC0" d="M1610 838Z"/><path fill="#78B9CA" d="M1611 836Z"/><path fill="#71B2C3" d="M1612 833Z"/><path fill="#70B2C3" d="M1613 830Z"/><path fill="#70B2C2" d="M1614 827Z"/><path fill="#72B4C5" d="M1615 824Z"/><path fill="#6DADBE" d="M1616 820Z"/><path fill="#74B5C6" d="M1617 817Z"/><path fill="#74B6C7" d="M1618 813Z"/><path fill="#70B2C2" d="M1619 808Z"/><path fill="#71B2C3" d="M1621 725Z"/><path fill="#74B6C6" d="M1619 714Z"/><path fill="#71B2C3" d="M1618 710Z"/><path fill="#76B8C8" d="M1617 706Z"/><path fill="#71B3C3" d="M1616 703Z"/><path fill="#6FB1C1" d="M1615 700Z"/><path fill="#6EAFBF" d="M1614 697Z"/><path fill="#6DADBE" d="M1613 694Z"/><path fill="#77B9C9" d="M1612 690Z"/><path fill="#6EAFBF" d="M1611 687Z"/><path fill="#71B3C3" d="M1610 672Z"/><path fill="#71B2C3" d="M1607 568Z"/><path fill="#70B2C2" d="M1603 552Z"/><path fill="#73B4C5" d="M1602 548Z"/><path fill="#6EAFBF" d="M1601 545Z"/><path fill="#75B7C7" d="M1600 541Z"/><path fill="#71B2C3" d="M1599 538Z"/><path fill="#6FB0C1" d="M1598 535Z"/><path fill="#6EAFBF" d="M1597 532Z"/><path fill="#6CADBE" d="M1596 529Z"/><path fill="#6DAEBE" d="M1595 526Z"/><path fill="#6EAFC0" d="M1594 523Z"/><path fill="#71B1C2" d="M1593 520Z"/><path fill="#74B6C7" d="M1592 517Z"/><path fill="#6EAFBF" d="M1590 512Z"/><path fill="#74B6C6" d="M1589 509Z"/><path fill="#6CACBD" d="M1588 507Z"/><path fill="#73B5C4" d="M1587 504Z"/><path fill="#75B6C7" d="M1585 499Z"/><path fill="#6EAFBF" d="M1584 497Z"/><path fill="#73B5C4" d="M1582 492Z"/><path fill="#6EAFC0" d="M1581 490Z"/><path fill="#77B8C9" d="M1579 485Z"/><path fill="#74B5C6" d="M1578 483Z"/><path fill="#71B3C3" d="M1577 481Z"/><path fill="#6EAFC0" d="M1576 479Z"/><path fill="#6CADBE" d="M1575 477Z"/><path fill="#6CACBD" d="M1569 465Z"/><path fill="#6DAEBE" d="M1568 463Z"/><path fill="#6EB0C1" d="M1567 461Z"/><path fill="#72B2C4" d="M1566 459Z"/><path fill="#75B8C8" d="M1565 457Z"/><path fill="#6BADBD" d="M1562 452Z"/><path fill="#72B2C4" d="M1561 450Z"/><path fill="#6EAFBF" d="M1558 445Z"/><path fill="#73B6C6" d="M1557 443Z"/><path fill="#6FB0C1" d="M1554 438Z"/><path fill="#73B4C5" d="M1553 436Z"/><path fill="#76B9C9" d="M1552 434Z"/><path fill="#76B8C8" d="M1544 418Z"/><path fill="#74B5C5" d="M1543 416Z"/><path fill="#70B3C2" d="M1542 414Z"/><path fill="#6EAFC0" d="M1541 412Z"/><path fill="#6CACBD" d="M1540 410Z"/><path fill="#6DAEBE" d="M1529 388Z"/><path fill="#71B2C3" d="M1528 386Z"/><path fill="#74B6C6" d="M1527 384Z"/><path fill="#77B8C9" d="M1526 382Z"/><path fill="#6BACBD" d="M1524 379Z"/><path fill="#72B3C3" d="M1523 377Z"/><path fill="#72B4C5" d="M1520 372Z"/><path fill="#6DAEBE" d="M1518 369Z"/><path fill="#6BADBD" d="M1516 366Z"/><path fill="#6FB1C1" d="M1512 360Z"/><path fill="#75B7C7" d="M1510 357Z"/><path fill="#75B7C8" d="M1507 353Z"/><path fill="#6CADBE" d="M1506 352Z"/><path fill="#75B8C8" d="M1503 348Z"/><path fill="#6FB1C1" d="M1502 347Z"/><path fill="#77B9CA" d="M1494 338Z"/><path fill="#75B7C8" d="M1493 337Z"/><path fill="#75B8C8" d="M1492 336Z"/><path fill="#77AFBC" d="M1490 334Z"/><path fill="#78B2C0" d="M1489 333Z"/><path fill="#7AB6C4" d="M1488 332Z"/><path fill="#74B1C0" d="M1472 311Z"/><path fill="#70ACBB" d="M1471 309Z"/><path fill="#6DADBD" d="M1469 305Z"/><path fill="#6CACBC" d="M1468 303Z"/><path fill="#6EAEBE" d="M1467 301Z"/><path fill="#6FAFBF" d="M1466 299Z"/><path fill="#74B5C4" d="M1465 297Z"/><path fill="#78BAC9" d="M1464 295Z"/><path fill="#70AFBF" d="M1462 292Z"/><path fill="#77B9C8" d="M1461 290Z"/><path fill="#74B5C4" d="M1459 287Z"/><path fill="#73B2C3" d="M1457 284Z"/><path fill="#74B5C5" d="M1455 281Z"/><path fill="#6FAFBF" d="M1452 277Z"/><path fill="#71B1C0" d="M1449 273Z"/><path fill="#78BAC9" d="M1446 269Z"/><path fill="#71B2C2" d="M1445 268Z"/><path fill="#77B8C8" d="M1439 261Z"/><path fill="#74B5C5" d="M1438 260Z"/><path fill="#73B3C3" d="M1437 259Z"/><path fill="#70B1C0" d="M1436 258Z"/><path fill="#70AFBF" d="M1435 257Z"/><path fill="#70B0C0" d="M1434 256Z"/><path fill="#71B1C1" d="M1433 255ZM1432 254Z"/><path fill="#74B2C2" d="M1431 253Z"/><path fill="#71A6B2" d="M1430 252Z"/><path fill="#6FA1AD" d="M1429 251Z"/><path fill="#72A6B2" d="M1428 250Z"/><path fill="#75AEBB" d="M1427 249Z"/></svg>